<svg width="47" height="47" viewBox="0 0 47 47" fill="none" xmlns="http://www.w3.org/2000/svg">
<path d="M23.5 0C36.47 0 47 10.53 47 23.5C47 36.47 36.47 47 23.5 47C10.53 47 0 36.47 0 23.5C0 10.53 10.53 0 23.5 0Z" fill="#ED396C"/>
<path d="M29.2913 27.0955C28.564 26.3774 27.6559 26.3774 26.9332 27.0955C26.3819 27.6421 25.8306 28.1888 25.2885 28.7447C25.1403 28.8976 25.0152 28.93 24.8345 28.8281C24.4778 28.6335 24.0979 28.476 23.7551 28.2629C22.1567 27.2576 20.8178 25.9651 19.6318 24.5104C19.0434 23.7877 18.5199 23.014 18.1539 22.143C18.0798 21.967 18.0937 21.8512 18.2373 21.7076C18.7886 21.1748 19.326 20.6281 19.8681 20.0815C20.6232 19.3217 20.6232 18.4322 19.8634 17.6678C19.4326 17.2323 19.0017 16.8061 18.5709 16.3706C18.1261 15.9259 17.686 15.4765 17.2366 15.0364C16.5093 14.3276 15.6012 14.3276 14.8785 15.041C14.3225 15.5877 13.7898 16.1483 13.2245 16.6857C12.701 17.1814 12.437 17.7883 12.3814 18.4971C12.2933 19.6506 12.5759 20.7393 12.9744 21.8002C13.7898 23.9961 15.0314 25.9465 16.537 27.7348C18.5709 30.1531 20.9985 32.0664 23.8384 33.447C25.1171 34.0677 26.4421 34.5449 27.8829 34.6237C28.8744 34.6793 29.7361 34.4291 30.4264 33.6554C30.8989 33.1273 31.4317 32.6455 31.9321 32.1405C32.6733 31.39 32.678 30.482 31.9413 29.7408C31.0611 28.8559 30.1762 27.9757 29.2913 27.0955Z" fill="white"/>
</svg>
