<svg width="47" height="48" viewBox="0 0 47 48" fill="none" xmlns="http://www.w3.org/2000/svg">
<path d="M23.5 0.0751953C36.47 0.0751953 47 10.6052 47 23.5752C47 36.5452 36.47 47.0752 23.5 47.0752C10.53 47.0752 0 36.5452 0 23.5752C0 10.6052 10.53 0.0751953 23.5 0.0751953Z" fill="#ED396C"/>
<path d="M24.3125 13.0405H24.3076C18.946 13.0405 14.5859 17.4018 14.5859 22.7647C14.5859 24.8918 15.2715 26.8634 16.4372 28.4642L15.2253 32.0767L18.963 30.8819C20.5006 31.9005 22.3349 32.4888 24.3125 32.4888C29.6742 32.4888 34.0342 28.1263 34.0342 22.7647C34.0342 17.403 29.6742 13.0405 24.3125 13.0405ZM29.9707 26.7722C29.7361 27.4347 28.8051 27.9841 28.0624 28.1445C27.5543 28.2527 26.8906 28.339 24.6565 27.4128C21.7988 26.2289 19.9585 23.325 19.8151 23.1366C19.6777 22.9482 18.6604 21.599 18.6604 20.2036C18.6604 18.8082 19.369 18.1287 19.6546 17.837C19.8892 17.5975 20.277 17.4881 20.6489 17.4881C20.7693 17.4881 20.8775 17.4942 20.9747 17.499C21.2603 17.5112 21.4038 17.5282 21.5922 17.9792C21.8268 18.5444 22.3981 19.9398 22.4661 20.0832C22.5354 20.2267 22.6047 20.4211 22.5075 20.6096C22.4163 20.804 22.3361 20.8903 22.1926 21.0556C22.0492 21.221 21.9131 21.3474 21.7696 21.5248C21.6384 21.6792 21.4901 21.8445 21.6554 22.1302C21.8207 22.4097 22.392 23.342 23.2331 24.0908C24.3186 25.0571 25.1986 25.3659 25.5134 25.4971C25.748 25.5944 26.0276 25.5713 26.199 25.389C26.4166 25.1544 26.6852 24.7654 26.9587 24.3825C27.1532 24.1078 27.3987 24.0738 27.6564 24.171C27.9189 24.2622 29.3083 24.949 29.5939 25.0912C29.8796 25.2346 30.068 25.3027 30.1373 25.423C30.2053 25.5433 30.2053 26.1086 29.9707 26.7722Z" fill="white"/>
</svg>
