<svg width="726" height="419" viewBox="0 0 726 419" fill="none" xmlns="http://www.w3.org/2000/svg">
<path d="M725.165 191.54C725.165 387.352 563.017 546.089 362.997 546.089C162.976 546.089 0.828125 387.352 0.828125 191.54C0.828125 -4.27156 162.976 -163.009 362.997 -163.009C563.017 -163.009 725.165 -4.27156 725.165 191.54Z" fill="#DDDDFE"/>
<path d="M664.195 191.541C664.195 354.384 529.347 486.395 363.004 486.395C196.66 486.395 61.8125 354.384 61.8125 191.541C61.8125 28.6971 196.66 -103.314 363.004 -103.314C529.347 -103.314 664.195 28.6971 664.195 191.541Z" fill="#CCCCFE"/>
<path d="M609.675 191.539C609.675 324.911 499.232 433.03 362.994 433.03C226.755 433.03 116.312 324.911 116.312 191.539C116.312 58.1672 226.755 -49.9521 362.994 -49.9521C499.232 -49.9521 609.675 58.1672 609.675 191.539Z" fill="#BFBFFF"/>
<path d="M557.022 191.54C557.022 296.439 470.157 381.477 363.003 381.477C255.85 381.477 168.984 296.439 168.984 191.54C168.984 86.6407 255.85 1.60303 363.003 1.60303C470.157 1.60303 557.022 86.6407 557.022 191.54Z" fill="#B7B7FF"/>
</svg>
