<svg xmlns="http://www.w3.org/2000/svg" xmlns:xlink="http://www.w3.org/1999/xlink" width="50" height="50" viewBox="0 0 50 50">
  <defs>
    <clipPath id="clip-path">
      <rect id="Rectangle_6596" data-name="Rectangle 6596" width="43.971" height="37.675" transform="translate(0 0)" fill="#339" stroke="#339" stroke-linejoin="bevel" stroke-width="0.3"/>
    </clipPath>
    <clipPath id="clip-Transcations">
      <rect width="50" height="50"/>
    </clipPath>
  </defs>
  <g id="Transcations" clip-path="url(#clip-Transcations)">
    <g id="Group_24477" data-name="Group 24477" transform="translate(2.999 6)">
      <g id="Group_24476" data-name="Group 24476" transform="translate(0 0)" clip-path="url(#clip-path)">
        <path id="Path_13051" data-name="Path 13051" d="M63.694,55.888h10.6c.074,0,.147,0,.221,0a.873.873,0,0,1,.957.963c0,1.4,0,2.8,0,4.194v9.491c0,.732-.314,1.049-1.042,1.049H52.987c-.762,0-1.07-.309-1.07-1.072V56.976c0-.049,0-.1,0-.147a.868.868,0,0,1,.933-.939c.335-.008.67,0,1.006,0h9.838m0,1.57c-2.036,0-4.072,0-6.108,0-.184,0-.265.038-.311.232a4.51,4.51,0,0,1-3.592,3.561c-.142.033-.2.078-.2.234q.009,2.244,0,4.487c0,.158.041.226.2.263A4.489,4.489,0,0,1,57.269,69.8c.039.162.1.223.276.223q6.157-.008,12.313,0c.162,0,.228-.049.26-.207a4.142,4.142,0,0,1,.512-1.394,4.568,4.568,0,0,1,3.057-2.186c.165-.035.219-.093.218-.269q-.013-2.231,0-4.463c0-.161-.044-.225-.2-.257a4.177,4.177,0,0,1-1.134-.379A4.515,4.515,0,0,1,70.123,57.7c-.045-.2-.127-.249-.323-.248-2.036.007-4.072,0-6.108,0M73.9,68.9c0-.335,0-.669,0-1,0-.1-.019-.145-.141-.1a3.186,3.186,0,0,0-2.079,2.053c-.046.129-.022.175.119.174q.968-.007,1.935,0c.126,0,.171-.034.168-.165-.008-.318,0-.637,0-.955m-20.412,0c0,.318,0,.637,0,.955,0,.125.031.17.163.169.645-.006,1.291,0,1.936,0,.126,0,.179-.022.125-.169a3.266,3.266,0,0,0-2.056-2.054c-.141-.05-.169-.013-.167.12,0,.327,0,.653,0,.98m0-10.3v.636c0,.526.006.538.494.309a3.248,3.248,0,0,0,1.7-1.83c.063-.162.07-.261-.168-.255-.6.016-1.207.014-1.81,0-.193,0-.231.061-.223.236.014.3,0,.6,0,.9m19.284-1.135c-.319,0-.638.006-.957,0-.158,0-.178.049-.127.187a3.271,3.271,0,0,0,2.049,2.033c.144.052.166,0,.165-.125,0-.637-.007-1.275,0-1.913,0-.165-.064-.186-.2-.182-.311.008-.622,0-.932,0" transform="translate(-31.502 -33.911)" fill="#339" stroke="#339" stroke-linejoin="bevel" stroke-width="0.3"/>
        <path id="Path_13052" data-name="Path 13052" d="M11.778,0h10.6c.074,0,.147,0,.221,0a.873.873,0,0,1,.957.963c0,1.414,0,2.829,0,4.243v9.442c0,.732-.314,1.049-1.042,1.049H1.07C.307,15.7,0,15.39,0,14.627V1.09c0-.049,0-.1,0-.147A.867.867,0,0,1,.933,0C1.268,0,1.6,0,1.939,0h9.839m0,1.57c-2.027,0-4.055,0-6.083,0-.2,0-.289.039-.342.256A4.484,4.484,0,0,1,1.81,5.348c-.209.05-.245.132-.243.322q.011,2.169,0,4.339c0,.215.048.3.274.353A4.514,4.514,0,0,1,5.347,13.89c.049.188.12.243.31.243q6.132-.008,12.263,0c.189,0,.253-.064.285-.236a4.3,4.3,0,0,1,.952-1.986,4.537,4.537,0,0,1,2.616-1.57c.117-.025.218-.034.217-.218-.01-1.512-.008-3.023,0-4.535,0-.142-.041-.2-.181-.225a4.31,4.31,0,0,1-1.157-.385,4.513,4.513,0,0,1-2.443-3.164c-.045-.208-.132-.246-.325-.246-2.036.007-4.071,0-6.107,0m10.21,11.436V12.03c0-.1.011-.178-.143-.126a3.188,3.188,0,0,0-2.077,2.056c-.048.134-.015.172.122.171.645,0,1.29-.005,1.935,0,.131,0,.168-.042.165-.168-.007-.318,0-.637,0-.955M1.571,12.986c0,.326.005.653,0,.98,0,.129.039.167.167.166.645-.006,1.291,0,1.936,0,.13,0,.175-.029.122-.171a3.278,3.278,0,0,0-2.058-2.053c-.146-.052-.167,0-.165.124,0,.319,0,.637,0,.956m0-10.287v.587c0,.593.008.609.552.341A3.217,3.217,0,0,0,3.771,1.808c.045-.122.1-.244-.136-.239-.628.013-1.256.01-1.883,0-.164,0-.186.063-.182.2.008.309,0,.619,0,.929m20.413,0c0-.319,0-.638,0-.956,0-.119-.021-.175-.159-.174-.646.007-1.292.005-1.938,0-.135,0-.172.035-.123.171a3.267,3.267,0,0,0,2.063,2.051c.125.044.158.011.156-.112,0-.327,0-.654,0-.981" transform="translate(0 0)" fill="#339" stroke="#339" stroke-linejoin="bevel" stroke-width="0.3"/>
        <path id="Path_13053" data-name="Path 13053" d="M24.7,50.634v.219c0,2.338,0,4.676-.006,7.014,0,.214.048.271.267.269,1.137-.012,2.274,0,3.41-.007a1.6,1.6,0,0,1,.46.057.752.752,0,0,1-.02,1.461,1.656,1.656,0,0,1-.436.055q-2.086,0-4.171,0c-.767,0-1.076-.307-1.076-1.067q0-3.875,0-7.749V50.55c-.194.2-.338.347-.485.495-.462.462-.91.941-1.393,1.38a.727.727,0,0,1-1.188-.289.672.672,0,0,1,.143-.77c.309-.327.633-.639.95-.957q1.056-1.06,2.112-2.12a.777.777,0,0,1,1.287-.017c1.01.956,1.965,1.966,2.944,2.952a.824.824,0,0,1,.3.8.755.755,0,0,1-1.235.4c-.538-.525-1.064-1.063-1.591-1.6a1.842,1.842,0,0,1-.181-.259l-.094.068" transform="translate(-12.134 -29.088)" fill="#339" stroke="#339" stroke-linejoin="bevel" stroke-width="0.3"/>
        <path id="Path_13054" data-name="Path 13054" d="M74.169,27.094c.606-.6,1.168-1.162,1.727-1.721a.818.818,0,0,1,.708-.316.779.779,0,0,1,.641.506.675.675,0,0,1-.172.766c-.449.464-.911.915-1.367,1.373q-.822.826-1.642,1.653c-.5.5-.855.5-1.355,0q-1.436-1.443-2.879-2.879a.856.856,0,0,1-.346-.793.747.747,0,0,1,1.25-.425c.569.528,1.1,1.094,1.653,1.642.055.055.092.136.186.147a.426.426,0,0,0,.022-.238c0-2.338,0-4.676.008-7.014,0-.232-.075-.261-.276-.259-1.145.009-2.29,0-3.435,0a1.022,1.022,0,0,1-.693-.194.722.722,0,0,1-.3-.731.768.768,0,0,1,.567-.588,1.588,1.588,0,0,1,.46-.057c1.407,0,2.813,0,4.22,0a.894.894,0,0,1,1.021,1.024v8.1Z" transform="translate(-41.192 -10.901)" fill="#339" stroke="#339" stroke-linejoin="bevel" stroke-width="0.3"/>
        <path id="Path_13055" data-name="Path 13055" d="M79.737,69.783a3.927,3.927,0,1,1-3.943-3.912,3.9,3.9,0,0,1,3.943,3.912m-3.932,2.37a2.357,2.357,0,0,0,.062-4.714,2.357,2.357,0,1,0-.062,4.714" transform="translate(-43.619 -39.97)" fill="#339" stroke="#339" stroke-linejoin="bevel" stroke-width="0.3"/>
        <path id="Path_13056" data-name="Path 13056" d="M27.821,13.9a3.927,3.927,0,1,1-3.943-3.914A3.927,3.927,0,0,1,27.821,13.9m-3.937,2.368a2.359,2.359,0,1,0-2.341-2.393,2.376,2.376,0,0,0,2.341,2.393" transform="translate(-12.117 -6.059)" fill="#339" stroke="#339" stroke-linejoin="bevel" stroke-width="0.3"/>
      </g>
    </g>
  </g>
</svg>
