<svg xmlns="http://www.w3.org/2000/svg" xmlns:xlink="http://www.w3.org/1999/xlink" width="50" height="50" viewBox="0 0 50 50">
  <defs>
    <clipPath id="clip-path">
      <rect id="Rectangle_6597" data-name="Rectangle 6597" width="43.992" height="38.854" fill="#fff"/>
    </clipPath>
    <clipPath id="clip-articles">
      <rect width="50" height="50"/>
    </clipPath>
  </defs>
  <g id="articles" clip-path="url(#clip-articles)">
    <g id="Group_24479" data-name="Group 24479" transform="translate(3 6.001)">
      <g id="Group_24478" data-name="Group 24478" clip-path="url(#clip-path)">
        <path id="Path_13059" data-name="Path 13059" d="M19.5,0H36.836A2.072,2.072,0,0,1,38.9,1.411a2.217,2.217,0,0,1,.111.7c0,.888,0,1.776-.006,2.664,0,.184.053.221.227.22.866-.009,1.732-.005,2.6,0A2.057,2.057,0,0,1,43.991,7.1c0,.05,0,.1,0,.15q0,13.149,0,26.3a5.127,5.127,0,0,1-.539,2.533,4.967,4.967,0,0,1-4.593,2.759q-12.4.027-24.807.008-4.467,0-8.935,0A5,5,0,0,1,.113,34.794,5.513,5.513,0,0,1,0,33.642Q0,17.883,0,2.124A2.035,2.035,0,0,1,2.106,0C3.18,0,4.253,0,5.327,0H19.5m2.483,36.841v.009H39.019a2.954,2.954,0,0,0,2.928-2.388A7.026,7.026,0,0,0,42,33.029q0-10.754,0-21.508Q42,9.4,42,7.289c0-.3,0-.3-.3-.3-.795,0-1.589-.007-2.384-.009-.335,0-.312-.079-.312.3q0,12.4,0,24.795c0,.667.041.718.692.848a.958.958,0,0,1-.086,1.9,2.212,2.212,0,0,1-1.7-.584,2.567,2.567,0,0,1-.885-2.081c.006-.917,0-1.833,0-2.75q0-13.45-.006-26.9c0-.49,0-.491-.5-.491H2.335c-.379,0-.35-.082-.35.378q0,15.556,0,31.112a5.966,5.966,0,0,0,.03.686,2.878,2.878,0,0,0,1.909,2.479,4.182,4.182,0,0,0,1.63.178H21.986" transform="translate(0 0)" fill="#fff"/>
        <path id="Path_13060" data-name="Path 13060" d="M28.634,36.443q0,2.3,0,4.6c0,.157,0,.315-.016.472a.975.975,0,0,1-.906.928,5.662,5.662,0,0,1-.686.018h-9a2.71,2.71,0,0,1-.64-.054.976.976,0,0,1-.76-.854,13.559,13.559,0,0,1-.01-1.417q-.009-4.2,0-8.4a2.586,2.586,0,0,1,.036-.534,1.049,1.049,0,0,1,1.155-.786c1.246,0,2.491,0,3.737,0H27.3a2.8,2.8,0,0,1,.45.024.95.95,0,0,1,.867.935c.019.25.014.5.014.751q0,2.16,0,4.319Zm-6.012-4.05h0c-1.288,0-2.576,0-3.864,0-.171,0-.2.059-.2.212q.012,3.715.012,7.431c0,.438-.008.438.43.438q3.714,0,7.428,0c.173,0,.233-.035.229-.223-.014-.579-.006-1.16-.006-1.739,0-1.947,0-3.894,0-5.842,0-.211-.035-.288-.277-.285-1.252.016-2.5.008-3.757.008" transform="translate(-10.616 -19.448)" fill="#fff"/>
        <path id="Path_13061" data-name="Path 13061" d="M30.219,18.6H17.957a1.963,1.963,0,0,1-.574-.066.965.965,0,0,1,.095-1.889,2.521,2.521,0,0,1,.448-.039q12.21,0,24.419,0a3.12,3.12,0,0,1,.449.032.968.968,0,0,1-.054,1.931c-.349.026-.7.027-1.051.027q-5.734,0-11.469,0Z" transform="translate(-10.652 -10.616)" fill="#fff"/>
        <path id="Path_13062" data-name="Path 13062" d="M64.1,87.6c-1.344.014-2.982-.019-4.621.017a1.017,1.017,0,0,1-1.135-1.057.992.992,0,0,1,.841-.9,2.314,2.314,0,0,1,.406-.031q4.691,0,9.381,0a2.407,2.407,0,0,1,.554.052.962.962,0,0,1-.151,1.909c-.478.021-.958.01-1.438.01-1.18,0-2.361,0-3.837,0" transform="translate(-37.308 -54.754)" fill="#fff"/>
        <path id="Path_13063" data-name="Path 13063" d="M64.37,32.4H59.6a1.212,1.212,0,0,1-1.072-.423.913.913,0,0,1-.115-.972,1.034,1.034,0,0,1,.968-.6c.192-.012.386,0,.579,0q4.529,0,9.059,0a2.407,2.407,0,0,1,.512.045.968.968,0,0,1-.165,1.916c-.349.026-.7.021-1.051.021q-1.975,0-3.95,0V32.4" transform="translate(-37.298 -19.444)" fill="#fff"/>
        <path id="Path_13064" data-name="Path 13064" d="M22.671,87.611q-2.318,0-4.637,0a4.376,4.376,0,0,1-.471-.022.967.967,0,0,1-.014-1.93,5.8,5.8,0,0,1,.685-.032q4.605,0,9.21,0a1.452,1.452,0,0,1,.608.1.981.981,0,0,1,.566,1.054.951.951,0,0,1-.882.8c-.306.024-.615.013-.922.013H22.671v.012" transform="translate(-10.651 -54.753)" fill="#fff"/>
        <path id="Path_13065" data-name="Path 13065" d="M64.355,46.213H59.719c-.107,0-.215,0-.322-.006a.991.991,0,1,1,.029-1.976c.257,0,.515,0,.773,0l8.885,0a1.869,1.869,0,0,1,.51.056.957.957,0,0,1-.05,1.871,5.711,5.711,0,0,1-1.2.044c-1.33.01-2.661,0-3.992,0Z" transform="translate(-37.31 -28.283)" fill="#fff"/>
        <path id="Path_13066" data-name="Path 13066" d="M22.663,73.795q-2.329,0-4.658,0a4.08,4.08,0,0,1-.493-.022.962.962,0,0,1-.119-1.891,2.275,2.275,0,0,1,.6-.061l9.466,0a1.1,1.1,0,0,1,1.021.473.964.964,0,0,1-.706,1.486,9.09,9.09,0,0,1-1.072.009H22.663v.011" transform="translate(-10.654 -45.923)" fill="#fff"/>
        <path id="Path_13067" data-name="Path 13067" d="M64.344,73.8h-4.7a2.2,2.2,0,0,1-.555-.041.97.97,0,0,1-.744-.976,1,1,0,0,1,.876-.938,2.919,2.919,0,0,1,.428-.023q4.658,0,9.315,0a2.308,2.308,0,0,1,.6.057.962.962,0,0,1-.152,1.9,9.475,9.475,0,0,1-1.007,0q-2.028,0-4.057,0V73.8" transform="translate(-37.308 -45.926)" fill="#fff"/>
        <path id="Path_13068" data-name="Path 13068" d="M64.329,58.027H68.99a2.323,2.323,0,0,1,.576.052.989.989,0,0,1,.757.993.975.975,0,0,1-.883.9,7.148,7.148,0,0,1-.922,0l-9,.015a1.23,1.23,0,0,1-.793-.21.972.972,0,0,1-.346-1.035,1.031,1.031,0,0,1,.882-.713,3.745,3.745,0,0,1,.407-.013h4.661Z" transform="translate(-37.307 -37.103)" fill="#fff"/>
      </g>
    </g>
  </g>
</svg>
