<svg xmlns="http://www.w3.org/2000/svg" xmlns:xlink="http://www.w3.org/1999/xlink" width="50" height="50" viewBox="0 0 50 50">
  <defs>
    <clipPath id="clip-Batches">
      <rect width="50" height="50"/>
    </clipPath>
  </defs>
  <g id="Batches" clip-path="url(#clip-Batches)">
    <g id="Group_24421" data-name="Group 24421" transform="translate(4 10.001)">
      <g id="Group_24013" data-name="Group 24013" transform="translate(0 0)">
        <path id="Path_12944" data-name="Path 12944" d="M25.942,12.82a13.371,13.371,0,0,1,2.173,1.26,13.023,13.023,0,0,1,5.084,7.45,10.966,10.966,0,0,1,.306,1.593c.014.13.061.164.186.164q2.962-.005,5.925,0c.1,0,.179.005.176-.14-.018-1.345.057-2.692-.042-4.035a8.592,8.592,0,0,0-2.094-5.043,8.794,8.794,0,0,0-3.533-2.5.447.447,0,0,0-.414.017,6.093,6.093,0,0,1-2.106.679,5.942,5.942,0,0,1-2.365-.179.678.678,0,0,1-.53-.781.659.659,0,0,1,.806-.51,9.495,9.495,0,0,0,1.27.17,4.8,4.8,0,0,0,1.449-9.412,4.757,4.757,0,0,0-3.513.313c-.161.08-.322.164-.49.229a.623.623,0,0,1-.772-.253.659.659,0,0,1,.094-.811,1.067,1.067,0,0,1,.222-.17,6.1,6.1,0,0,1,8.392,2.2,5.909,5.909,0,0,1,.625,4.794,5.991,5.991,0,0,1-1.484,2.539c-.155.162-.154.156.049.257a10.093,10.093,0,0,1,5.511,6.913,10.181,10.181,0,0,1,.29,2.605c-.014,1.191,0,2.383,0,3.575a1.5,1.5,0,0,1-.041.377.67.67,0,0,1-.624.533c-.194.013-.388.01-.582.01-2.042,0-4.084,0-6.126-.009-.166,0-.182.061-.182.2q.005,2.571,0,5.141a.748.748,0,0,1-.822.842c-.06,0-.12,0-.181,0H8.6c-.06,0-.121,0-.181,0-.563-.018-.858-.275-.852-.87.016-1.693,0-3.387.009-5.08,0-.177-.046-.224-.223-.224q-3.1.009-6.206,0c-.114,0-.228,0-.341,0a.722.722,0,0,1-.782-.8c.009-1.626-.073-3.255.048-4.878A9.794,9.794,0,0,1,1.329,14.9a10.165,10.165,0,0,1,4.546-4.275c.151-.073.085-.124.019-.2a6.934,6.934,0,0,1-.947-1.268A6.134,6.134,0,0,1,8.812.2a5.991,5.991,0,0,1,4.6.672.663.663,0,0,1,.386.67.635.635,0,0,1-.435.55.664.664,0,0,1-.579-.06,5.421,5.421,0,0,0-1.393-.552,4.746,4.746,0,0,0-5.1,2.047,4.8,4.8,0,0,0,2.241,7.108,4.989,4.989,0,0,0,2.956.191,1.509,1.509,0,0,1,.357-.046.653.653,0,0,1,.624.529.617.617,0,0,1-.349.7,2.878,2.878,0,0,1-.909.232,5.823,5.823,0,0,1-3.656-.611A.606.606,0,0,0,6.98,11.6a8.881,8.881,0,0,0-5.6,8.393q.008,1.566,0,3.132c0,.141.051.163.174.162q2.962,0,5.925,0c.129,0,.169-.04.183-.167A11.017,11.017,0,0,1,8.037,21.2a13.617,13.617,0,0,1,2.6-4.905,13.189,13.189,0,0,1,4.336-3.345c.26-.129.265-.125.069-.342a7.389,7.389,0,0,1-1.854-3.72,7.239,7.239,0,0,1,2.174-6.732,7.141,7.141,0,0,1,6.028-2.1A7.354,7.354,0,0,1,26.8,3.32a7.39,7.39,0,0,1,.109,8.264,7.416,7.416,0,0,1-.969,1.237M20.569,29.472v0q5.734,0,11.468,0c.157,0,.206-.036.205-.2,0-1.392,0-2.784,0-4.177a15.011,15.011,0,0,0-.059-1.664,11.671,11.671,0,0,0-7.245-9.579.339.339,0,0,0-.339.025c-.181.114-.369.216-.559.314a7.4,7.4,0,0,1-5.64.557,8.139,8.139,0,0,1-1.822-.87.326.326,0,0,0-.336-.023c-.278.131-.567.239-.841.379a11.49,11.49,0,0,0-6.228,8,13.626,13.626,0,0,0-.254,3.093q0,1.988-.005,3.976c0,.172.073.175.2.175q5.724,0,11.448,0m6.182-21.93a6.174,6.174,0,1,0-6.735,6.14,6.129,6.129,0,0,0,6.735-6.14" transform="translate(0 0)" fill="#fff" stroke="#fff" stroke-width="1"/>
      </g>
    </g>
  </g>
</svg>
