<svg xmlns="http://www.w3.org/2000/svg" xmlns:xlink="http://www.w3.org/1999/xlink" width="50" height="50" viewBox="0 0 50 50">
  <defs>
    <clipPath id="clip-currntaffairs">
      <rect width="50" height="50"/>
    </clipPath>
  </defs>
  <g id="currntaffairs" clip-path="url(#clip-currntaffairs)">
    <g id="Group_25349" data-name="Group 25349" transform="translate(4 2)">
      <g id="Group_25350" data-name="Group 25350">
        <path id="Path_13069" data-name="Path 13069" d="M35.049,28.772c-.328.711-.648,1.426-.984,2.133-.525,1.1-1.062,2.2-1.592,3.306a1.906,1.906,0,0,1-.448.565Q29.63,37,27.235,39.22a1.686,1.686,0,0,1-.685.462.882.882,0,0,1-1.129-.741,9.7,9.7,0,0,1,.062-1.645c.038-.791.1-1.581.158-2.371.014-.178-.037-.22-.212-.22q-4.664,0-9.327,0-5.148,0-10.3,0a1.219,1.219,0,0,1-.434-.046A.642.642,0,0,1,5.46,33.42a2.528,2.528,0,0,1,.438-.032H25.41c.322,0,.327,0,.35-.31.025-.336.047-.673.059-1.01a2.6,2.6,0,0,1,.282-1.163c.128-.238.232-.489.35-.733.058-.119.041-.174-.107-.172-.638.01-1.275.018-1.913.018q-9.306,0-18.611,0a3.238,3.238,0,0,1-.416-.024.643.643,0,0,1,.031-1.285c.08-.007.161,0,.242,0q10.581,0,21.163,0a.392.392,0,0,0,.428-.26c.456-.991.934-1.972,1.41-2.954.072-.148.047-.193-.116-.187-.22.008-.44,0-.66,0l-17.687,0a1.749,1.749,0,0,1-.459-.039.632.632,0,0,1-.478-.633.624.624,0,0,1,.529-.611A3.107,3.107,0,0,1,10.4,24q9.24,0,18.479.009a.667.667,0,0,0,.727-.466c.405-.917.858-1.813,1.3-2.714a.651.651,0,1,1,1.186.523c-.227.492-.46.981-.692,1.471q-1.956,4.118-3.916,8.233c-.061.128-.054.187.081.251q1.908.9,3.81,1.806c.135.064.173.019.226-.1q2.127-4.487,4.26-8.97,1.432-3,2.875-6c.047-.1.12-.187-.045-.264-1.271-.6-2.53-1.225-3.816-1.792-.147-.065-.211-.043-.28.1-.361.769-.732,1.533-1.1,2.3a1.326,1.326,0,0,1-.232.371.624.624,0,0,1-.765.113.633.633,0,0,1-.3-.715,10.067,10.067,0,0,1,.557-1.265c.6-1.288,1.216-2.568,1.828-3.85.05-.105.11-.206.17-.306a2.561,2.561,0,0,0,.363-1.462c-.034-.975-.013-1.952-.007-2.927,0-.153-.022-.209-.2-.209q-16.235.014-32.47.015c-.315,0-.631,0-.946-.018-.153-.008-.194.047-.181.185.008.08,0,.161,0,.242q0,6.626,0,13.252a1.406,1.406,0,0,1-.052.457.662.662,0,0,1-.64.446.629.629,0,0,1-.582-.486A1.743,1.743,0,0,1,0,21.843Q0,11.8,0,1.767A1.6,1.6,0,0,1,.936.162,2.067,2.067,0,0,1,1.794,0c.359,0,.719,0,1.078,0H34.529a2.834,2.834,0,0,1,.655.064,1.568,1.568,0,0,1,1.23,1.589c.006.154,0,.308,0,.462q0,4.3,0,8.606c0,.195.049.231.23.188a2.575,2.575,0,0,1,1.678.141c.655.292,1.316.58,1.939.931A2.693,2.693,0,0,1,41.7,14.44a2.3,2.3,0,0,1-.279,1.009l-4.541,9.542a.145.145,0,0,1-.009.02A3.262,3.262,0,0,0,36.4,27c.019,5.144.01,10.287.011,15.431q0,.44.007.881a1.636,1.636,0,0,1-1.677,1.775c-.059,0-.117,0-.176,0H1.835a1.857,1.857,0,0,1-1.186-.323A1.564,1.564,0,0,1,0,43.5c-.007-.374,0-.748,0-1.123q0-8.4,0-16.8a2.9,2.9,0,0,1,.025-.549.641.641,0,0,1,.6-.544.665.665,0,0,1,.632.46,1.42,1.42,0,0,1,.052.457q0,8.937,0,17.874c0,.45.034.489.485.5.418.006.836,0,1.254,0H33.542c.4,0,.807.006,1.21,0,.284-.006.351-.08.351-.358q0-7.242,0-14.485c0-.049,0-.1-.006-.146l-.049-.007M18.206,6.84c1.29,0,2.581,0,3.871,0,4.282.013,8.564-.031,12.845.028.176,0,.183-.068.182-.2q0-2.476,0-4.952c0-.318-.067-.393-.382-.4-.4-.006-.792,0-1.188,0H4.191c-.843,0-1.686,0-2.529,0-.271,0-.348.088-.348.34,0,1.673,0,3.346,0,5.018,0,.162.053.194.2.189.432-.016.865-.023,1.3-.023q7.7,0,15.4,0m19.1,5.311a1.186,1.186,0,0,0-1.21.736q-.379.841-.772,1.675c-.054.116-.026.173.08.224q1.925.909,3.848,1.824c.1.048.146.026.186-.064.274-.615.614-1.2.864-1.825a1.052,1.052,0,0,0,.065-.581A1.5,1.5,0,0,0,39.431,13q-.755-.354-1.513-.7a1.375,1.375,0,0,0-.613-.147M27,34.312h0c-.005.1,0,.191-.017.285a.193.193,0,0,0,.134.221c.6.279,1.192.559,1.785.846a.219.219,0,0,0,.289-.047c.44-.42.884-.837,1.336-1.244.138-.124.094-.157-.042-.219-.478-.221-.953-.45-1.428-.679q-.881-.423-1.759-.851c-.14-.068-.2-.06-.209.127-.019.52-.059,1.039-.091,1.559m-.158,3.474c.333-.3.682-.633,1.045-.945.144-.124.1-.178-.036-.243-.226-.1-.45-.211-.674-.317-.313-.148-.323-.149-.332.2-.011.434,0,.869,0,1.3" transform="translate(0)" fill="#fff" stroke="#fff" stroke-linejoin="bevel" stroke-width="0.3"/>
        <path id="Path_13074" data-name="Path 13074" d="M30.067,17.121H22.941a.646.646,0,0,1-.7-.838.6.6,0,0,1,.492-.447,2.315,2.315,0,0,1,.393-.033l13.945,0c.345,0,.667.04.827.406a.637.637,0,0,1-.548.909c-.219.014-.44,0-.66,0h-6.62v0" transform="translate(-17.187 -12.229)" fill="#fff" stroke="#fff" stroke-linejoin="bevel" stroke-width="0.3"/>
        <path id="Path_13199" data-name="Path 13199" d="M30.067,17.121H22.941a.646.646,0,0,1-.7-.838.6.6,0,0,1,.492-.447,2.315,2.315,0,0,1,.393-.033l13.945,0c.345,0,.667.04.827.406a.637.637,0,0,1-.548.909c-.219.014-.44,0-.66,0h-6.62v0" transform="translate(-9.187 3.771)" fill="#fff" stroke="#fff" stroke-linejoin="bevel" stroke-width="0.3"/>
        <path id="Path_13200" data-name="Path 13200" d="M27.43,17.121H22.694c-.348,0-.558-.378-.467-.838.049-.245.158-.4.327-.447a1.038,1.038,0,0,1,.261-.033l9.266,0a.486.486,0,0,1,.549.406c.123.425-.057.879-.364.909-.146.014-.292,0-.438,0h-4.4v0" transform="translate(-4.448 -0.229)" fill="#fff" stroke="#fff" stroke-linejoin="bevel" stroke-width="0.3"/>
        <path id="Path_13075" data-name="Path 13075" d="M105.293,16.451a.643.643,0,0,1-.676.651.661.661,0,1,1,.041-1.321.647.647,0,0,1,.635.67" transform="translate(-80.473 -12.213)" fill="#fff" stroke="#fff" stroke-linejoin="bevel" stroke-width="0.3"/>
        <path id="Path_13076" data-name="Path 13076" d="M119.7,17.122a.659.659,0,0,1,0-1.318.673.673,0,0,1,.667.673.662.662,0,0,1-.668.645" transform="translate(-92.148 -12.232)" fill="#fff" stroke="#fff" stroke-linejoin="bevel" stroke-width="0.3"/>
        <path id="Path_13077" data-name="Path 13077" d="M135.356,16.568a.669.669,0,0,1-.666.673.651.651,0,0,1-.62-.644.643.643,0,1,1,1.286-.028" transform="translate(-103.765 -12.332)" fill="#fff" stroke="#fff" stroke-linejoin="bevel" stroke-width="0.3"/>
      </g>
    </g>
  </g>
</svg>
