<svg xmlns="http://www.w3.org/2000/svg" xmlns:xlink="http://www.w3.org/1999/xlink" width="50" height="50" viewBox="0 0 50 50">
  <defs>
    <clipPath id="clip-Enrolments">
      <rect width="50" height="50"/>
    </clipPath>
  </defs>
  <g id="Enrolments" clip-path="url(#clip-Enrolments)">
    <g id="Group_24435" data-name="Group 24435" transform="translate(4 1.999)">
      <path id="Path_12490" data-name="Path 12490" d="M-545.519-85a3.347,3.347,0,0,1,1.75,1.112,2.714,2.714,0,0,1,.563,1.637V-62.2c0,.117-.014.235-.021.33l-2.38-.581V-81.84c0-.69-.069-.758-.756-.758h-32.748c-.69,0-.756.066-.756.755v39.032c0,.66.072.733.733.733h17.879a1.2,1.2,0,0,1,1.3,1.439,1.378,1.378,0,0,1-.88.962h-19.123c-1.878-.739-2.323-1.4-2.323-3.447v-9.2q0-14.77,0-29.54a3.356,3.356,0,0,1,.422-1.82,3.182,3.182,0,0,1,1.9-1.319Z" transform="translate(582.283 85)" fill="#fefefe"/>
      <path id="Path_12491" data-name="Path 12491" d="M-565.922-80.265a8.777,8.777,0,0,1,1.273.171,8.361,8.361,0,0,1,3.421,1.949,3.345,3.345,0,0,1,1.048,2.494c.011.587-.04,1.176-.058,1.764-.006.229-.039.439.229.6a.707.707,0,0,1,.231.913,13.784,13.784,0,0,1-.862,1.727c-.5.831-1.049,1.63-1.592,2.465a3.177,3.177,0,0,0,2.55,1.763q1.411.351,2.823.7a1.263,1.263,0,0,1,1.021,1.036,13.57,13.57,0,0,1,.171,1.483c.021.266-.088.417-.414.417q-8.472-.014-16.946,0c-.315,0-.44-.13-.423-.406a13.145,13.145,0,0,1,.134-1.445,1.4,1.4,0,0,1,1.145-1.153c.9-.225,1.8-.416,2.706-.626.257-.06.506-.152.764-.209a2.078,2.078,0,0,0,1.573-1.757.651.651,0,0,0-.132-.423c-.59-.932-1.217-1.844-1.775-2.794a3.011,3.011,0,0,1-.312-1.125.65.65,0,0,1,.241-.535c.4-.227.34-.555.338-.908a13.016,13.016,0,0,1,.055-2.286,3.466,3.466,0,0,1,2.365-2.582c.583-.241.586-.233.462-.863C-565.9-79.976-565.9-80.064-565.922-80.265Z" transform="translate(584.101 85.974)" fill="#fefefe"/>
      <path id="Path_12492" data-name="Path 12492" d="M-551.618-48.9c-1.931-1.5-3.825-2.978-5.725-4.445-.223-.172-.206-.3-.054-.5q2.661-3.583,5.309-7.175c.315-.427.614-.866.942-1.282.345-.438.56-.456,1-.124q2.428,1.809,4.851,3.621c.563.422.585.588.165,1.156q-3.149,4.265-6.3,8.529C-551.481-49.051-551.541-48.988-551.618-48.9Z" transform="translate(587.381 89.599)" fill="#fefefe"/>
      <path id="Path_12493" data-name="Path 12493" d="M-564.7-60.206q-4.381,0-8.76,0a1.166,1.166,0,0,1-1.129-.631,1.179,1.179,0,0,1,.075-1.256,1.255,1.255,0,0,1,1.152-.518q5.44.005,10.882,0c2.183,0,4.365,0,6.547,0a1.153,1.153,0,0,1,1.177.819,1.114,1.114,0,0,1-.407,1.33,1.732,1.732,0,0,1-.866.241C-558.918-60.2-561.809-60.206-564.7-60.206Z" transform="translate(583.837 89.608)" fill="#fefefe"/>
      <path id="Path_12494" data-name="Path 12494" d="M-557.6-57.083a3.162,3.162,0,0,1-1.048,1.553.263.263,0,0,0-.1.086c-.409.824-1.124.831-1.922.825-4.366-.029-8.733-.012-13.1-.014a1.228,1.228,0,0,1-1.216-1.8,1.261,1.261,0,0,1,1.254-.655q3.518,0,7.036,0h9.093Z" transform="translate(583.754 90.745)" fill="#fefefe"/>
      <path id="Path_12495" data-name="Path 12495" d="M-552.995-48.572l-6.013,2.052v-6.722Z" transform="translate(587.073 91.536)" fill="#fefefe"/>
    </g>
  </g>
</svg>
