<svg xmlns="http://www.w3.org/2000/svg" xmlns:xlink="http://www.w3.org/1999/xlink" width="50" height="50" viewBox="0 0 50 50">
  <defs>
    <clipPath id="clip-Orders">
      <rect width="50" height="50"/>
    </clipPath>
  </defs>
  <g id="Orders" clip-path="url(#clip-Orders)">
    <g id="orders-icon" transform="translate(4.999 2.999)">
      <path id="Path_13057" data-name="Path 13057" d="M8.861,30.477a1.143,1.143,0,1,1,0-2.286H16.4a1.143,1.143,0,0,1,0,2.286Zm12.563-3.313a.631.631,0,0,1,0-1.262h1.694a2.908,2.908,0,0,1,1.518.4,2.4,2.4,0,0,1,1.024,1.455.061.061,0,0,0,.018.049l.161.638H39.825a.625.625,0,0,1,.624.624.961.961,0,0,1-.032.193l-1.63,6.571a.616.616,0,0,1-.607.48H27.949A2.568,2.568,0,0,0,28.7,37.8a4.182,4.182,0,0,0,2.079.238h7.241a.624.624,0,1,1,0,1.248h-7.23a4.886,4.886,0,0,1-2.8-.449c-.673-.449-1.024-1.213-1.374-2.605h0l-2.142-8.11c0-.018,0-.018-.014-.032a1.105,1.105,0,0,0-.48-.719,1.629,1.629,0,0,0-.88-.207H21.424ZM36.147,40.018a1.536,1.536,0,1,1-1.536,1.536,1.535,1.535,0,0,1,1.536-1.536Zm-6.732,0a1.536,1.536,0,1,1-1.536,1.536,1.535,1.535,0,0,1,1.536-1.536ZM8.861,11.774a1.143,1.143,0,1,1,0-2.286H26.575a1.143,1.143,0,1,1,0,2.286ZM2.654,0H32.679A2.646,2.646,0,0,1,35.33,2.651V23.682H33.051V2.661a.371.371,0,0,0-.375-.375H2.654a.389.389,0,0,0-.266.109.365.365,0,0,0-.105.266v34.6a.389.389,0,0,0,.109.266.362.362,0,0,0,.266.109h19.3a12.662,12.662,0,0,0,.782,2.269H2.654a2.65,2.65,0,0,1-1.876-.775A2.624,2.624,0,0,1,0,37.255V2.654A2.646,2.646,0,0,1,2.654,0ZM8.861,21.126a1.143,1.143,0,1,1,0-2.286H26.575a1.143,1.143,0,1,1,0,2.286Z" transform="translate(0 0)" fill="#ffffff" stroke="#ffffff" stroke-width="0.3"/>
    </g>
  </g>
</svg>
