<svg xmlns="http://www.w3.org/2000/svg" xmlns:xlink="http://www.w3.org/1999/xlink" width="50" height="50" viewBox="0 0 50 50">
  <defs>
    <clipPath id="clip-Packages">
      <rect width="50" height="50"/>
    </clipPath>
  </defs>
  <g id="Packages" clip-path="url(#clip-Packages)">
    <g id="course-package" transform="translate(6 6)">
      <path id="Path_13028" data-name="Path 13028" d="M221.757,243.2a.955.955,0,0,0-.957.957v16.269a.955.955,0,0,0,.957.957h3.828a.956.956,0,0,0,.957-.957V244.157a.956.956,0,0,0-.957-.957Zm2.871,16.269h-1.914V245.114h1.914Zm6.7-9.57a.955.955,0,0,0-.957.957v9.57a.955.955,0,0,0,.957.957h3.828a.956.956,0,0,0,.957-.957v-9.57a.955.955,0,0,0-.957-.957h-3.828Zm2.871,9.57h-1.914v-7.656H234.2Zm6.7-6.7a.955.955,0,0,0-.957.957v6.7a.955.955,0,0,0,.957.957h3.828a.955.955,0,0,0,.957-.957v-6.7a.955.955,0,0,0-.957-.957Zm2.871,6.7h-1.914v-4.785h1.914Z" transform="translate(-214.101 -235.544)" fill="#fff" stroke="#fff" stroke-width="0.2"/>
      <path id="Path_13029" data-name="Path 13029" d="M101.324,79.312a.955.955,0,0,0,.957-.957V75.484a1.916,1.916,0,0,0-1.914-1.914h-13.4V65.914A1.916,1.916,0,0,0,85.054,64H65.914A1.922,1.922,0,0,0,64,65.914v34.453a1.922,1.922,0,0,0,1.914,1.914h34.453a1.922,1.922,0,0,0,1.914-1.914V86.011a.957.957,0,1,0-1.914,0v6.7H65.914V66.871a.961.961,0,0,1,.957-.957H84.1a.955.955,0,0,1,.957.957v7.656a.955.955,0,0,0,.957.957h13.4a.955.955,0,0,1,.957.957v1.914A.955.955,0,0,0,101.324,79.312Zm-.957,15.312V99.41a.961.961,0,0,1-.957.957H66.871a.961.961,0,0,1-.957-.957V94.625Z" transform="translate(-64 -64)" fill="#fff" stroke="#fff" stroke-width="0.2"/>
    </g>
  </g>
</svg>
