<svg xmlns="http://www.w3.org/2000/svg" xmlns:xlink="http://www.w3.org/1999/xlink" width="50" height="50" viewBox="0 0 50 50">
  <defs>
    <clipPath id="clip-path">
      <rect id="Rectangle_6572" data-name="Rectangle 6572" width="45.729" height="42.769" fill="#fff"/>
    </clipPath>
    <clipPath id="clip-Registrations">
      <rect width="50" height="50"/>
    </clipPath>
  </defs>
  <g id="Registrations" clip-path="url(#clip-Registrations)">
    <g id="Group_25298" data-name="Group 25298" transform="translate(1.999 4)">
      <g id="Group_24414" data-name="Group 24414" transform="translate(0 0)" clip-path="url(#clip-path)">
        <path id="Path_13019" data-name="Path 13019" d="M33.769,23.446q.008,4.127.014,8.255c0,2.276.007,4.552,0,6.827a4.143,4.143,0,0,1-.674,2.288,4.057,4.057,0,0,1-2.956,1.88,6.3,6.3,0,0,1-.842.068q-12.416,0-24.832,0A4.263,4.263,0,0,1,.744,40.89,3.893,3.893,0,0,1,.01,38.646Q0,21.577,0,4.508A4.664,4.664,0,0,1,.261,2.774,4.177,4.177,0,0,1,3.408.088,4.792,4.792,0,0,1,4.42.006Q16.85,0,29.28,0a4.253,4.253,0,0,1,3.546,1.573,3.85,3.85,0,0,1,.894,2.333q.042,1.493.054,2.988a.573.573,0,0,1-.134.38c-.947.922-1.906,1.831-2.862,2.743a1.111,1.111,0,0,1-.121.082c-.008-.109-.019-.188-.019-.267,0-1.771,0-3.542-.008-5.313a2.126,2.126,0,0,0-.129-.706,1.044,1.044,0,0,0-1.024-.653c-.483-.03-.968-.037-1.452-.038Q16.281,3.117,4.537,3.116c-.751,0-1.137.235-1.345.819a.657.657,0,0,0-.04.214q-.009,16.94-.012,33.88a3.545,3.545,0,0,0,.061.81,1.157,1.157,0,0,0,1.234.829q7.184-.017,14.367-.042c3.391-.007,6.782,0,10.173,0a3.405,3.405,0,0,0,.793-.046,1.175,1.175,0,0,0,.868-1.236q0-5.77-.007-11.541a1.007,1.007,0,0,1,.343-.821c.905-.837,1.791-1.695,2.684-2.544l.112.007" transform="translate(0 0)" fill="#fff"/>
        <path id="Path_13020" data-name="Path 13020" d="M43.924,22.85v.322c0,1.971,0,3.942,0,5.913a.682.682,0,0,1-.236.544c-1.071,1.024-2.129,2.06-3.2,3.084a.7.7,0,0,1-.352.15,2.876,2.876,0,0,1-.484.014l-17.714,0h-.455V31.811q0-3.942,0-7.883c0-.285-.008-.57-.024-.854-.01-.175.056-.234.23-.229.371.011.743.005,1.114.005H43.924m-3.146,6.842.022-.061-.02-3.593L40.713,26c-.114,0-.228,0-.342,0l-14.98.007c-.246,0-.492.013-.737.02l-.041.069v3.611h.88l14.87,0c.139,0,.278-.012.416-.019" transform="translate(-15.802 -16.819)" fill="#fff"/>
        <path id="Path_13021" data-name="Path 13021" d="M108.544,17.53l-19.431,18.8-3.8-3.786c.358-.364.752-.785,1.167-1.184,1.326-1.276,2.667-2.538,3.991-3.817,1.011-.977,2-1.978,3.008-2.957.858-.833,1.737-1.645,2.6-2.474,1.192-1.144,2.376-2.3,3.566-3.443q1.865-1.8,3.737-3.586c.412-.395.835-.778,1.241-1.178.123-.122.2-.136.322-.007q1.493,1.55,3,3.088c.185.189.39.358.6.548" transform="translate(-62.815 -10.163)" fill="#fff"/>
        <rect id="Rectangle_6570" data-name="Rectangle 6570" width="22.358" height="3.089" transform="translate(5.727 33.715)" fill="#fff"/>
        <path id="Path_13022" data-name="Path 13022" d="M32.777,75.274c.037.068.106.135.106.2.007.961,0,1.922,0,2.9H21.69V75.265H31.974c.247,0,.495.01.742.016l.061-.007" transform="translate(-15.969 -55.414)" fill="#fff"/>
        <rect id="Rectangle_6571" data-name="Rectangle 6571" width="11.166" height="3.096" transform="translate(5.72 27.078)" fill="#fff"/>
        <path id="Path_13023" data-name="Path 13023" d="M72.973,95.41l2-5.664.1-.06c.192.219.372.449.577.655.958.967,1.923,1.926,2.884,2.889.247.248.22.31-.108.416q-1.351.433-2.695.888c-.853.287-1.7.584-2.555.873a.754.754,0,0,1-.208,0" transform="translate(-53.727 -66.033)" fill="#fff"/>
        <path id="Path_13024" data-name="Path 13024" d="M63.558,75.3l-.061.007.061-.007" transform="translate(-46.75 -55.44)" fill="#fff"/>
        <path id="Path_13025" data-name="Path 13025" d="M94.519,34.842l-.067-.039.067.039" transform="translate(-69.541 -25.624)" fill="#fff"/>
        <path id="Path_13026" data-name="Path 13026" d="M33.444,34.919l-.041.069.041-.069" transform="translate(-24.593 -25.709)" fill="#fff"/>
        <path id="Path_13027" data-name="Path 13027" d="M94.7,48.639l.022-.061-.022.061" transform="translate(-69.723 -35.766)" fill="#fff"/>
      </g>
    </g>
  </g>
</svg>
