<svg xmlns="http://www.w3.org/2000/svg" xmlns:xlink="http://www.w3.org/1999/xlink" width="50" height="50" viewBox="0 0 50 50">
  <defs>
    <clipPath id="clip-resources">
      <rect width="50" height="50"/>
    </clipPath>
  </defs>
  <g id="resources" clip-path="url(#clip-resources)">
    <g id="Group_24483" data-name="Group 24483" transform="translate(2 3)">
      <g id="Group_25348" data-name="Group 25348" transform="translate(0 0)">
        <path id="Path_13078" data-name="Path 13078" d="M5.809,20.5V20.26c0-2.32,0-4.641,0-6.962,0-.186-.043-.238-.233-.236-1.1.009-2.193,0-3.29,0A2.191,2.191,0,0,1,.244,11.884,2.123,2.123,0,0,1,0,10.834Q0,7.931,0,5.029A2.131,2.131,0,0,1,1.836,2.953a5.209,5.209,0,0,1,.655-.047q7.724,0,15.449,0a2.221,2.221,0,0,1,2.119,1.139,2.484,2.484,0,0,1,.27,1.2q.012.906,0,1.813c0,.159.039.2.2.2q4.186-.008,8.371,0c.206,0,.216-.1.229-.245a7.949,7.949,0,0,1,14.966-2.7,7.6,7.6,0,0,1,.448,6.314,7.645,7.645,0,0,1-5.336,5A7.542,7.542,0,0,1,31.7,13.9a7.466,7.466,0,0,1-2.572-4.949c-.017-.182-.072-.249-.274-.248q-4.151.012-8.3,0c-.177,0-.223.046-.224.223-.01.756.047,1.512-.037,2.265a2.109,2.109,0,0,1-1.781,1.822,5.587,5.587,0,0,1-.769.048c-2.442,0-4.884,0-7.328-.005-.193,0-.252.038-.25.244q.016,2.018,0,4.037c0,.21.071.278.265.326,2.213.545,4.422,1.1,6.634,1.652a2.159,2.159,0,0,1,1.816,2.263c0,.14.026.2.183.194q1.293-.012,2.586,0c.162,0,.207-.06.219-.206a7.877,7.877,0,0,1,6.324-6.889,7.667,7.667,0,0,1,7.835,2.9,7.616,7.616,0,0,1,1.722,5.018,7.964,7.964,0,0,1-7.012,7.809,7.73,7.73,0,0,1-7.025-2.737,7.341,7.341,0,0,1-1.843-4.227c-.017-.177-.08-.233-.265-.231q-1.248.018-2.5,0c-.2,0-.229.064-.229.242q.01,2.653,0,5.306a5.284,5.284,0,0,1-.507,2.394,4.471,4.471,0,0,1-.506.829c-.524.655-1.046,1.313-1.579,1.96a.343.343,0,0,0-.046.46,7.367,7.367,0,0,1,.723,1.68.23.23,0,0,0,.266.2q5.831-.006,11.661,0c.17,0,.219-.06.235-.214A7.86,7.86,0,0,1,35.457,29.2a7.685,7.685,0,0,1,8.1,3.277,7.411,7.411,0,0,1,1.436,5.039A7.986,7.986,0,0,1,29.24,38.779a7.681,7.681,0,0,1-.123-.85c-.016-.132-.054-.193-.206-.191q-5.7.006-11.388,0c-.153,0-.2.045-.172.2a6.12,6.12,0,0,1,.076,1.015c0,1.935-.005,3.87,0,5.805,0,.206-.055.245-.25.245q-6.295-.01-12.59,0c-.186,0-.238-.042-.238-.233.008-2.049-.022-4.1.014-6.146a8.091,8.091,0,0,1,1.021-3.882.781.781,0,0,0-.13-1.094c-.49-.521-.912-1.108-1.351-1.677a5.134,5.134,0,0,1-1-3.139c-.02-1.029-.012-2.057,0-3.084a3.516,3.516,0,0,0-.384-1.659q-.442-.869-.869-1.743a1.888,1.888,0,0,1,.857-2.55,2.488,2.488,0,0,1,1.75-.084,4.32,4.32,0,0,1,1.546.791m4.356-1.452v.3c0,2.419,0,4.837.005,7.257,0,.214-.062.265-.262.254a7.6,7.6,0,0,0-.93,0c-.22.014-.271-.052-.271-.271q.012-7.733.005-15.466c0-.1,0-.2-.005-.295a.692.692,0,0,0-.271-.527.726.726,0,0,0-.791-.067.67.67,0,0,0-.384.663q0,7.812,0,15.625a1.386,1.386,0,0,0,0,.181c.014.123-.039.155-.155.152-.363-.005-.727-.01-1.089,0-.168.005-.216-.038-.215-.211q.012-1.633,0-3.266a2.481,2.481,0,0,0-2.5-2.333.425.425,0,0,0-.407.428.8.8,0,0,0,.115.387c.233.457.465.915.708,1.368a5.463,5.463,0,0,1,.639,2.679c-.009,1.065-.007,2.132,0,3.2a3.161,3.161,0,0,0,.628,1.905c.569.763,1.177,1.5,1.765,2.246a.309.309,0,0,0,.269.128q3.868,0,7.735,0a.3.3,0,0,0,.267-.126c.485-.618.956-1.247,1.475-1.838a3.479,3.479,0,0,0,.918-2.31c.018-2.563.008-5.125.007-7.688a.673.673,0,0,0-.52-.683c-.254-.072-.515-.124-.768-.2-.131-.039-.179-.014-.164.124a1.28,1.28,0,0,1,0,.159c0,1.935,0,3.87,0,5.805,0,.174-.038.236-.221.227-.339-.016-.681-.017-1.021,0-.19.01-.219-.062-.217-.229.005-1.512,0-3.024,0-4.536,0-.59,0-1.179,0-1.769,0-.126-.03-.187-.159-.219-.425-.1-.846-.214-1.294-.328v.286c0,2.185,0,4.37,0,6.554,0,.182-.033.253-.231.241a7.452,7.452,0,0,0-.953,0c-.236.018-.28-.063-.279-.284.008-2.306,0-4.612.01-6.918,0-.193-.063-.258-.235-.3-.4-.09-.789-.2-1.222-.309m0-14.7H2.226a.69.69,0,0,0-.772.766V9.2c0,.552,0,1.1,0,1.655a.7.7,0,0,0,.765.756c1.133,0,2.268,0,3.4,0,.147,0,.194-.037.191-.187a5.225,5.225,0,0,1,.037-.949A2.2,2.2,0,0,1,7.9,8.714a2.156,2.156,0,0,1,2.181,1.655,4.17,4.17,0,0,1,.079,1.059c-.007.151.042.189.189.189q3.889,0,7.779,0a.671.671,0,0,0,.743-.7q.01-2.891,0-5.781a.7.7,0,0,0-.8-.773H10.163m.73,39.189c1.61,0,3.22-.005,4.831.005.215,0,.255-.064.254-.263q-.012-2.187,0-4.375a7.808,7.808,0,0,0-1.011-3.923.254.254,0,0,0-.261-.155q-3.811,0-7.619,0a.247.247,0,0,0-.252.139,7.485,7.485,0,0,0-1.017,3.692c-.017,1.549,0,3.1-.009,4.647,0,.187.045.237.235.236,1.618-.008,3.236,0,4.853,0m21.28-19.8a.6.6,0,0,0,.085.066,5.8,5.8,0,0,1,2.627,2.506c.051.1.093.117.17.008a6.413,6.413,0,0,0,1.069-5.38A6.49,6.49,0,0,0,29.147,16a6.546,6.546,0,0,0-5.82,7.581,6.525,6.525,0,0,0,1.229,2.865c.142-.231.271-.456.415-.673a5.613,5.613,0,0,1,2.244-1.926c.173-.085.156-.14.034-.242a1.547,1.547,0,0,1-.157-.164,3.482,3.482,0,0,1-.941-2.725,3.63,3.63,0,1,1,7.181,1.011,3.711,3.711,0,0,1-1.16,2.01M31.8,40.949a.653.653,0,0,0,.186-.262,5.666,5.666,0,0,1,2.432-2.3c.228-.119.229-.114.05-.3A3.545,3.545,0,0,1,33.444,35a3.64,3.64,0,0,1,3.524-3.065,3.589,3.589,0,0,1,3.616,3.02,3.4,3.4,0,0,1-1.014,3.159c-.127.13-.135.174.033.261A5.684,5.684,0,0,1,42.128,40.8c.073.138.117.144.207.009a6.382,6.382,0,0,0,.449-6.9,6.534,6.534,0,0,0-12.068,4.773A6.894,6.894,0,0,0,31.8,40.949m0-29.026a.419.419,0,0,0,.059-.056c.043-.071.086-.141.127-.214a5.658,5.658,0,0,1,2.415-2.29c.24-.126.241-.121.056-.314a3.54,3.54,0,0,1-1.019-3.066A3.608,3.608,0,0,1,37.5,2.944,3.467,3.467,0,0,1,40.388,5.2a3.428,3.428,0,0,1-.52,3.562c-.127.165-.275.316-.417.476a.738.738,0,0,0,.08.055,5.853,5.853,0,0,1,2.609,2.5c.06.117.1.123.182.008a6.425,6.425,0,0,0,1.119-5.118,6.506,6.506,0,0,0-7.028-5.19,6.306,6.306,0,0,0-3.695,1.6,6.3,6.3,0,0,0-2.132,5.973,6.51,6.51,0,0,0,1.218,2.858m5,2.577A6.546,6.546,0,0,0,41,13.182a.188.188,0,0,0,.076-.263,4.359,4.359,0,0,0-8.067-.086.271.271,0,0,0,.106.409A6.632,6.632,0,0,0,36.8,14.5m-.052,29.029A6.556,6.556,0,0,0,41.007,42.2c.107-.084.1-.152.06-.267a4.365,4.365,0,0,0-5.074-2.616,4.453,4.453,0,0,0-2.985,2.539.271.271,0,0,0,.111.409,6.585,6.585,0,0,0,3.633,1.26M29.477,29.013a6.553,6.553,0,0,0,1.281-.059,6.878,6.878,0,0,0,3.013-1.276c.1-.068.088-.134.052-.229A4.386,4.386,0,0,0,28.743,24.8a4.455,4.455,0,0,0-2.989,2.53.279.279,0,0,0,.113.426,6.557,6.557,0,0,0,3.61,1.255m7.542,8.73A2.187,2.187,0,0,0,39.2,35.576a2.176,2.176,0,1,0-4.352.008,2.2,2.2,0,0,0,2.17,2.159M29.747,23.229a2.181,2.181,0,1,0-2.158-2.221,2.178,2.178,0,0,0,2.158,2.221M37.021,8.714a2.181,2.181,0,1,0-2.172-2.162,2.178,2.178,0,0,0,2.172,2.162" transform="translate(0 0)" fill="#fff" stroke="#fff" stroke-linejoin="bevel" stroke-width="0.2"/>
      </g>
    </g>
  </g>
</svg>
