<svg xmlns="http://www.w3.org/2000/svg" xmlns:xlink="http://www.w3.org/1999/xlink" width="50" height="50" viewBox="0 0 50 50">
  <defs>
    <clipPath id="clip-path">
      <rect id="Rectangle_6595" data-name="Rectangle 6595" width="43.083" height="26.552" fill="#ed396c" stroke="#ed396c" stroke-width="0.3"/>
    </clipPath>
    <clipPath id="clip-Classes">
      <rect width="50" height="50"/>
    </clipPath>
  </defs>
  <g id="Classes" clip-path="url(#clip-Classes)">
    <g id="Group_24475" data-name="Group 24475" transform="translate(2.999 11.999)">
      <g id="Group_24475-2" data-name="Group 24475" clip-path="url(#clip-path)">
        <path id="Path_13045" data-name="Path 13045" d="M13.836,12.97c0-.194,0-.324,0-.454-.049-3.684-.009-7.367-.02-11.051,0-.212-.008-.425.009-.636a.82.82,0,0,1,.829-.823c.078-.007.157,0,.236,0H42.018a1.767,1.767,0,0,1,.4.032.757.757,0,0,1,.657.793c.007.51,0,1.021,0,1.532q0,8.849,0,17.7c0,.672-.293.954-.991.954q-8.638,0-17.276,0-2.168,0-4.336-.02a.268.268,0,0,0-.286.178,2.572,2.572,0,0,1-3.6,1.211c-1.17-.607-2.317-1.256-3.475-1.885-.073-.04-.15-.133-.23-.079s-.027.161-.027.244c0,1.7,0,3.393-.01,5.09a.778.778,0,0,1-.872.807c-1.053.006-2.105,0-3.158,0l-4.854,0a3.118,3.118,0,0,1-.4-.017.71.71,0,0,1-.618-.592,5.414,5.414,0,0,1-.021-1.128c0-.178-.013-.215-.195-.176A2.2,2.2,0,0,1,.349,23.615a2,2,0,0,1-.318-1.022c-.007-1.68-.09-3.363.051-5.04a9.891,9.891,0,0,1,2-5.15,3.894,3.894,0,0,1,2.5-1.414,5.082,5.082,0,0,1,1.03-.1q2.263,0,4.525,0a4.041,4.041,0,0,1,2.935,1.182c.26.255.476.556.762.9M28.454,1.527v0q-4.278,0-8.556,0c-1.422,0-2.844-.017-4.266.016-.2,0-.247.064-.242.254.014.51.006,1.021.006,1.532q0,5.95-.005,11.9a.623.623,0,0,0,.371.617q1.217.644,2.417,1.318c.155.087.226.085.332-.071q2.2-3.271,4.417-6.535c.078-.115.127-.105.221-.042.325.219.649.442.983.647.142.088.15.145.055.285C22.7,13.629,21.254,15.831,19.747,18a.162.162,0,0,0,.009.243,2.79,2.79,0,0,1,.588,1.009.232.232,0,0,0,.268.187q5.279-.009,10.559,0,5.055,0,10.111,0c.161,0,.249-.011.249-.222q-.011-8.6-.007-17.2c0-.1,0-.2,0-.306s-.043-.149-.153-.149c-.306,0-.613-.02-.919-.02q-6,0-12,0M4.465,21.021c0,1.241.006,2.482-.005,3.723,0,.224.07.273.279.271C5.925,25,7.111,25,8.3,25c.919,0,1.838.01,2.757.014.141,0,.278.025.273-.208-.042-2.16-.015-4.319-.01-6.479a5,5,0,0,1,.024-.588.764.764,0,0,1,1.518.018,3.279,3.279,0,0,1,.009.588.349.349,0,0,0,.221.387q1.415.747,2.817,1.517c.488.267.95.583,1.46.81a1.108,1.108,0,0,0,1.544-1.182,1.2,1.2,0,0,0-.715-.957c-1.1-.562-2.164-1.175-3.245-1.765a2.025,2.025,0,0,1-.782-.725c-.561-.907-1.113-1.821-1.707-2.706a2.722,2.722,0,0,0-2.406-1.278c-1.249.011-2.5,0-3.747,0a8.833,8.833,0,0,0-1.317.046,2.406,2.406,0,0,0-1.774.944,8.567,8.567,0,0,0-1.618,4.5c-.054,1.506-.015,3.015-.017,4.523a.655.655,0,0,0,.007.094.641.641,0,0,0,.658.579.659.659,0,0,0,.66-.586,3.963,3.963,0,0,0,.017-.47q0-2.274,0-4.547a2.566,2.566,0,0,1,.031-.422.681.681,0,0,1,.483-.557.782.782,0,0,1,1.028.794c0,1.225,0,2.45,0,3.676" transform="translate(0 -0.001)" fill="#ed396c" stroke="#ed396c" stroke-width="0.3"/>
        <path id="Path_13046" data-name="Path 13046" d="M68.864,27.112a4.365,4.365,0,1,1-4.367-4.4,4.379,4.379,0,0,1,4.367,4.4m-1.555-.02a2.8,2.8,0,0,0-2.569-2.829,2.865,2.865,0,0,0-3.06,2.638,2.834,2.834,0,0,0,2.748,3,2.8,2.8,0,0,0,2.881-2.813" transform="translate(-56.743 -21.432)" fill="#ed396c" stroke="#ed396c" stroke-width="0.3"/>
        <path id="Path_13047" data-name="Path 13047" d="M664.879,79.006q0-3.251,0-6.5c0-.154.047-.216.2-.215q.589,0,1.178,0c.133,0,.178.062.176.189-.006.3-.005.6-.005.9q0,6.042.009,12.085c0,.211-.054.3-.278.288-.345-.016-.691-.014-1.036,0-.182.006-.242-.045-.241-.237.007-2.167,0-4.334,0-6.5" transform="translate(-627.368 -68.211)" fill="#ed396c" stroke="#ed396c" stroke-width="0.3"/>
        <path id="Path_13048" data-name="Path 13048" d="M481.252,173.865c0-1.264,0-2.528,0-3.792,0-.126.044-.175.158-.175.424,0,.848,0,1.272,0,.156,0,.136.119.136.221q0,1.119,0,2.238c0,1.743,0,3.486,0,5.229,0,.214-.068.272-.27.264-.361-.013-.722-.01-1.083,0-.161,0-.216-.042-.215-.212.007-1.256,0-2.512,0-3.768h-.005" transform="translate(-454.101 -160.311)" fill="#ed396c" stroke="#ed396c" stroke-width="0.3"/>
        <path id="Path_13049" data-name="Path 13049" d="M590.444,182.5c0-1.162,0-2.323,0-3.485,0-.169.035-.238.22-.232.376.014.754.01,1.13,0,.161,0,.218.05.218.216q0,3.485,0,6.97c0,.184-.044.27-.252.26a9.783,9.783,0,0,0-1.036,0c-.219.013-.291-.037-.288-.274.014-1.154.006-2.308.006-3.461" transform="translate(-557.13 -168.696)" fill="#ed396c" stroke="#ed396c" stroke-width="0.3"/>
        <path id="Path_13050" data-name="Path 13050" d="M536.981,223.038c0-.777.006-1.555,0-2.332,0-.182.053-.223.224-.217.376.013.754.01,1.131,0,.151,0,.2.037.2.2q-.007,2.321,0,4.641c0,.19-.049.266-.253.257-.353-.015-.707-.012-1.06,0-.191.009-.253-.038-.249-.241.013-.769.005-1.539.005-2.309" transform="translate(-506.685 -208.05)" fill="#ed396c" stroke="#ed396c" stroke-width="0.3"/>
      </g>
    </g>
  </g>
</svg>
