<svg xmlns="http://www.w3.org/2000/svg" xmlns:xlink="http://www.w3.org/1999/xlink" width="50" height="50" viewBox="0 0 50 50">
  <defs>
    <clipPath id="clip-Courses">
      <rect width="50" height="50"/>
    </clipPath>
  </defs>
  <g id="Courses" clip-path="url(#clip-Courses)">
    <g id="Group_24460" data-name="Group 24460" transform="translate(4.001 6)">
      <g id="Group_24441" data-name="Group 24441" transform="translate(0 0)">
        <path id="Path_12483" data-name="Path 12483" d="M-1196.286-182.812c-.987.3-1.917.587-2.844.877-3.793,1.187-7.583,2.382-11.38,3.557-.339.105-.474.23-.471.61.018,3.272.012,6.544.006,9.816a3.462,3.462,0,0,1-.072.8.935.935,0,0,1-.9.689.952.952,0,0,1-.908-.737,3.635,3.635,0,0,1-.049-.716q0-4.975,0-9.95c0-.31-.067-.476-.4-.578q-6.961-2.159-13.913-4.344c-.1-.03-.2-.052-.339-.088a3.32,3.32,0,0,0-.041.362q0,12.044-.01,24.089a.618.618,0,0,0,.53.713c3.626,1.113,7.246,2.25,10.867,3.383a4.006,4.006,0,0,1,.708.279.922.922,0,0,1,.43,1.119.928.928,0,0,1-.974.642,2.8,2.8,0,0,1-.568-.132q-5.946-1.861-11.891-3.726c-.864-.271-1.031-.493-1.031-1.383q0-13.171,0-26.342c0-1.118.513-1.5,1.572-1.166q7.772,2.429,15.542,4.863a1.907,1.907,0,0,0,1.218,0q7.637-2.409,15.284-4.788c1.037-.324,1.561.057,1.561,1.139q.005,8.172,0,16.344a4.086,4.086,0,0,1-.051.717.916.916,0,0,1-.873.768.884.884,0,0,1-.946-.67,4.1,4.1,0,0,1-.073-.937q-.005-7.294,0-14.589Z" transform="translate(1229.526 185.152)" fill="#339" stroke="#339" stroke-width="0.4"/>
        <path id="Path_12484" data-name="Path 12484" d="M-1186.388-152.059c-1.375.406-2.682.79-3.987,1.18-2.86.855-5.714,1.724-8.581,2.557a1.993,1.993,0,0,1-1.048-.038c-2.088-.6-4.167-1.239-6.251-1.863-.141-.043-.286-.074-.47-.121v8.295a42.17,42.17,0,0,0,14.654-.005v-4.127c0-.4-.009-.81,0-1.215a1,1,0,0,1,.945-1.061.98.98,0,0,1,.979,1.022q.032,3.061.006,6.123a.971.971,0,0,1-.89,1.024,41.627,41.627,0,0,1-11.692.658c-1.655-.154-3.3-.408-4.949-.644-.771-.111-1.013-.433-1.014-1.226,0-2.986-.008-5.973.013-8.96a.551.551,0,0,0-.49-.639c-1.43-.4-2.855-.82-4.27-1.269a1.607,1.607,0,0,1-.789-.532.929.929,0,0,1,.616-1.41c1.072-.341,2.153-.652,3.231-.974,3.406-1.017,6.813-2.026,10.215-3.056a2.464,2.464,0,0,1,1.493,0q6.5,1.963,13.017,3.895c1.076.321,1.205.489,1.207,1.62,0,1.216.019,2.432-.006,3.647a3.323,3.323,0,0,0,.312,1.61,5.77,5.77,0,0,1,.286.756.88.88,0,0,1-.279.977.963.963,0,0,1-1.011.168,1.011,1.011,0,0,0-.565.007.967.967,0,0,1-1.009-.182.918.918,0,0,1-.293-.94.438.438,0,0,1,.04-.128,6.546,6.546,0,0,0,.578-3.629C-1186.4-151.016-1186.388-151.5-1186.388-152.059Zm-23.6-1.321c.17.071.236.1.305.126q5.021,1.5,10.046,2.983a1.057,1.057,0,0,0,.562-.027q4.874-1.439,9.743-2.9c.14-.041.273-.1.482-.177-.141-.051-.2-.078-.269-.1q-5.022-1.5-10.045-2.985a1.072,1.072,0,0,0-.566.023c-1.038.3-2.071.609-3.1.917Z" transform="translate(1225.309 177.721)" fill="#339" stroke="#339" stroke-width="0.4"/>
        <path id="Path_12485" data-name="Path 12485" d="M-1220.552-173.949c.057.014.189.041.316.081q2.448.759,4.893,1.523c.607.19.908.564.871,1.046a.967.967,0,0,1-1.384.821c-1.332-.408-2.659-.832-3.988-1.253a12.14,12.14,0,0,1-1.274-.434.894.894,0,0,1-.494-1.088A1,1,0,0,1-1220.552-173.949Z" transform="translate(1227.334 182.034)" fill="#339" stroke="#339" stroke-width="0.4"/>
        <path id="Path_12486" data-name="Path 12486" d="M-1215.5-164.186a2.379,2.379,0,0,1-.33-.063c-1.687-.525-3.376-1.046-5.057-1.586a.946.946,0,0,1-.587-1.484.9.9,0,0,1,1.07-.365c1.761.538,3.52,1.083,5.271,1.651a.913.913,0,0,1,.634,1.1A.94.94,0,0,1-1215.5-164.186Z" transform="translate(1227.335 180.304)" fill="#339" stroke="#339" stroke-width="0.4"/>
        <path id="Path_12487" data-name="Path 12487" d="M-1198.6-171.368a.955.955,0,0,1,.765-.939c.539-.183,1.087-.339,1.631-.508,1.159-.359,2.314-.732,3.478-1.075a.948.948,0,0,1,1.287.979,1.015,1.015,0,0,1-.832.89l-2.789.868c-.773.24-1.539.5-2.32.712A.92.92,0,0,1-1198.6-171.368Z" transform="translate(1220.918 182.031)" fill="#339" stroke="#339" stroke-width="0.4"/>
        <path id="Path_12488" data-name="Path 12488" d="M-1197.527-164.178a1,1,0,0,1-1.048-.679.89.89,0,0,1,.475-1.1c.509-.216,1.044-.364,1.572-.532q1.841-.585,3.687-1.158a1.006,1.006,0,0,1,1.242.337.957.957,0,0,1-.615,1.479c-1.41.457-2.827.894-4.242,1.336C-1196.854-164.367-1197.258-164.256-1197.527-164.178Z" transform="translate(1220.922 180.299)" fill="#339" stroke="#339" stroke-width="0.4"/>
        <path id="Path_12489" data-name="Path 12489" d="M-1218.13-158.362a3.437,3.437,0,0,1-.374-.077c-.787-.243-1.574-.485-2.356-.741a.98.98,0,0,1-.763-1.186.951.951,0,0,1,1.278-.653c.877.252,1.75.524,2.612.827a.907.907,0,0,1,.6,1.119A.961.961,0,0,1-1218.13-158.362Z" transform="translate(1227.336 178.45)" fill="#339" stroke="#339" stroke-width="0.4"/>
      </g>
    </g>
  </g>
</svg>
