<svg xmlns="http://www.w3.org/2000/svg" xmlns:xlink="http://www.w3.org/1999/xlink" width="50" height="50" viewBox="0 0 50 50">
  <defs>
    <clipPath id="clip-path">
      <rect id="Rectangle_6594" data-name="Rectangle 6594" width="38.462" height="41.767" transform="translate(0 0)" fill="#ed396c" stroke="#ed396c" stroke-width="0.2"/>
    </clipPath>
    <clipPath id="clip-Subject">
      <rect width="50" height="50"/>
    </clipPath>
  </defs>
  <g id="Subject" clip-path="url(#clip-Subject)">
    <g id="Group_24474" data-name="Group 24474" transform="translate(6 3.999)">
      <g id="Group_24473" data-name="Group 24473" transform="translate(0 0)" clip-path="url(#clip-path)">
        <path id="Path_13030" data-name="Path 13030" d="M0,27.681q0-8.194,0-16.389A2.268,2.268,0,0,1,.245,10.1a1.876,1.876,0,0,1,1.673-1c1.571-.015,3.142,0,4.713-.005.148,0,.214.042.212.2,0,.308,0,.617.009.925.007.163-.067.2-.211.2-.4-.006-.808.009-1.211-.006-.183-.007-.215.058-.215.224,0,1.572,0,3.143,0,4.715q0,12.966,0,25.932c0,.426,0,.427.416.427l16.674,0c.514,0,.511,0,.511-.524q0-14.9,0-29.809c0-.257-.008-.514,0-.771.006-.145-.039-.191-.186-.188-.425.009-.851,0-1.277.006-.142,0-.19-.036-.185-.182.011-.323.009-.647,0-.969,0-.138.048-.175.179-.175,1.608,0,3.216-.01,4.824.009a1.964,1.964,0,0,1,1.873,1.9c0,.051,0,.1,0,.154V44.194a1.971,1.971,0,0,1-1.537,2.016,2.386,2.386,0,0,1-.568.057H2.152a2,2,0,0,1-2.1-1.519A2.737,2.737,0,0,1,0,44.114Q0,35.9,0,27.681m26.726.008V11.869c0-.272.007-.544,0-.815a.592.592,0,0,0-.644-.645c-.572-.007-1.145.006-1.717-.005-.188,0-.25.04-.249.242.007,1.718,0,3.437,0,5.155q0,13.219.008,26.438a.682.682,0,0,1-.728.774c-.081,0-.162,0-.242,0H17.205q-6.233,0-12.466-.005c-.605,0-.838-.246-.838-.846V11.013c0-.139-.008-.28,0-.418s-.029-.19-.179-.188c-.565.009-1.132.026-1.7,0a.667.667,0,0,0-.756.734c0,.374,0,.749,0,1.123q0,15.874,0,31.748a2.743,2.743,0,0,0,.028.417.608.608,0,0,0,.606.53c.162.005.323,0,.485,0H25.654c.154,0,.308.006.462,0a.592.592,0,0,0,.612-.591c.013-.241,0-.484,0-.726q0-7.975,0-15.951" transform="translate(0 -4.5)" fill="#ed396c" stroke="#ed396c" stroke-width="0.2"/>
        <path id="Path_13031" data-name="Path 13031" d="M59.4,19.791V4.082a1.3,1.3,0,0,1,.873-1.358c.1-.037.117-.105.116-.207A11.677,11.677,0,0,1,60.4,1.175,1.261,1.261,0,0,1,61.517.042,7.844,7.844,0,0,1,63.056.035a1.3,1.3,0,0,1,1.231,1.373c0,.353,0,.706-.01,1.057a.249.249,0,0,0,.155.278,1.341,1.341,0,0,1,.831,1.331c0,.213.011.426,0,.639a.4.4,0,0,0,.173.373c.68.524,1.336,1.078,2,1.625a1.079,1.079,0,0,1,.443.918c-.018,2.019-.007,4.039-.006,6.059,0,.235.019.471,0,.7a.62.62,0,0,1-.656.6.589.589,0,0,1-.59-.492,1.89,1.89,0,0,1-.028-.35c0-2,0-4.009.019-6.014a.776.776,0,0,0-.353-.737,10.474,10.474,0,0,1-.817-.669c-.044-.036-.086-.1-.148-.078s-.034.1-.034.154q0,12.524.011,25.05c0,1.263-.006,2.526-.006,3.789a1.686,1.686,0,0,1-.133.64c-.475,1.175-.948,2.352-1.448,3.517a.937.937,0,0,1-.627.648c-.089.022-.092.075-.089.146.006.154.015.308.01.462a.671.671,0,0,1-.622.7.66.66,0,0,1-.658-.613,1,1,0,0,1-.008-.22c.02-.267.032-.506-.323-.592-.181-.043-.248-.258-.322-.426-.492-1.1-.929-2.232-1.388-3.351a3.449,3.449,0,0,1-.263-1.344q.012-7.711.005-15.422m4.582-.375V10.1c0-.059,0-.118,0-.176.006-.094-.033-.128-.128-.128q-1.5,0-2.995-.007c-.116,0-.155.044-.152.155.005.169,0,.338,0,.506q0,9.2,0,18.391c0,.136.01.216.185.213.939-.01,1.879-.014,2.818,0,.218,0,.28-.047.28-.275q-.013-4.68-.006-9.361M62.4,35.537v0c-.47,0-.939,0-1.409,0-.33,0-.353.036-.231.336.419,1.023.877,2.03,1.255,3.069a.321.321,0,0,0,.336.241c.18.011.258-.073.319-.232.278-.724.56-1.447.878-2.156.144-.32.278-.646.4-.974.093-.242.06-.284-.188-.284H62.4M62.352,5.906v0c.469,0,.939-.01,1.408.005.191.006.229-.057.225-.234-.013-.477,0-.954,0-1.431,0-.3,0-.3-.292-.306-.924-.008-1.849-.005-2.773-.017-.172,0-.208.059-.206.217q.011.781-.007,1.563c0,.155.039.205.2.2.485-.008.969,0,1.453,0m-.022,2.6v.015c.462,0,.925-.009,1.386,0,.2.006.29-.04.269-.263s0-.469,0-.7c0-.37,0-.375-.36-.374-.909,0-1.819.008-2.728.006-.155,0-.194.042-.186.2a8.558,8.558,0,0,1,0,.924c-.009.163.047.2.2.2.477-.009.954,0,1.43,0m.009,25.747v.017c.491,0,.981,0,1.472,0,.118,0,.176-.009.173-.145-.007-.344,0-.688,0-1.033,0-.1-.028-.142-.138-.141q-1.483.008-2.966,0c-.141,0-.17.054-.166.182.009.315.011.63,0,.945-.005.143.046.172.177.17.483-.007.966,0,1.45,0m-.011-2.609c.5,0,1,0,1.494,0,.1,0,.165-.005.162-.136-.008-.337-.006-.674,0-1.011,0-.117-.045-.148-.156-.148q-1.472.005-2.944,0c-.142,0-.17.06-.168.185a7.619,7.619,0,0,1-.011.879c-.021.213.057.239.24.234.461-.013.923,0,1.384,0M61.705,1.971h-.014c0,.176,0,.352,0,.528,0,.116.042.155.155.151.33-.013.66-.022.99-.025.126,0,.163-.052.163-.172,0-.308-.005-.617.012-.925.01-.175-.056-.216-.214-.2s-.308,0-.462,0c-.209.011-.49-.095-.608.045-.1.12-.021.391-.021.6" transform="translate(-29.418 0)" fill="#ed396c" stroke="#ed396c" stroke-width="0.2"/>
        <path id="Path_13032" data-name="Path 13032" d="M21.97,7.867q-2.192,0-4.383,0a1.417,1.417,0,0,1-1.27-.655,1.384,1.384,0,0,1-.206-.776q0-1.212,0-2.424a1.348,1.348,0,0,1,1.4-1.432c.411-.011.823-.01,1.233,0,.178,0,.263-.032.313-.23a3.03,3.03,0,0,1,5.9.036c.041.156.1.191.253.193a10.319,10.319,0,0,1,1.561.032,1.239,1.239,0,0,1,1.1,1.262q.02,1.354,0,2.71a1.314,1.314,0,0,1-1.422,1.281c-1.49.005-2.981,0-4.471,0m.017-1.3V6.558c1.446,0,2.892,0,4.338,0,.2,0,.24-.056.237-.249-.015-.734-.012-1.469,0-2.2,0-.171-.038-.222-.219-.225-.646-.01-1.292.038-1.937-.023a.624.624,0,0,1-.594-.576c-.026-.181-.017-.368-.055-.547a1.779,1.779,0,0,0-1.982-1.392A1.8,1.8,0,0,0,20.2,3.062c-.023.6-.263.828-.865.827-.565,0-1.131.009-1.7,0-.181,0-.219.057-.217.226q.01,1.145-.006,2.291c0,.148.057.165.182.165q2.192-.006,4.382,0" transform="translate(-7.979 -0.018)" fill="#ed396c" stroke="#ed396c" stroke-width="0.2"/>
        <path id="Path_13033" data-name="Path 13033" d="M28.436,22.015h3.631a1.77,1.77,0,0,1,.416.028.645.645,0,0,1,.523.6.661.661,0,0,1-.471.644,1.213,1.213,0,0,1-.369.049q-3.7,0-7.394,0c-.355,0-.681-.055-.831-.437a.64.64,0,0,1,.6-.88c.249-.013.5,0,.748,0h3.147Z" transform="translate(-11.835 -10.903)" fill="#ed396c" stroke="#ed396c" stroke-width="0.2"/>
        <path id="Path_13034" data-name="Path 13034" d="M28.458,36.236q1.894,0,3.788,0a.737.737,0,0,1,.583.206.6.6,0,0,1,.149.63.628.628,0,0,1-.528.44,2.581,2.581,0,0,1-.4.023q-3.667,0-7.335,0a.711.711,0,0,1-.754-.375.631.631,0,0,1,.526-.919c.263-.018.528,0,.793,0h3.171Z" transform="translate(-11.838 -17.946)" fill="#ed396c" stroke="#ed396c" stroke-width="0.2"/>
        <path id="Path_13035" data-name="Path 13035" d="M28.449,49.159c1.277,0,2.555,0,3.832,0a.666.666,0,0,1,.724.544.647.647,0,0,1-.571.731,2.868,2.868,0,0,1-.4.02q-3.656,0-7.312,0c-.337,0-.631-.058-.777-.41a.636.636,0,0,1,.514-.885,2.456,2.456,0,0,1,.286-.009h3.7v.005" transform="translate(-11.837 -24.347)" fill="#ed396c" stroke="#ed396c" stroke-width="0.2"/>
        <path id="Path_13036" data-name="Path 13036" d="M28.455,62.081h3.787a.743.743,0,0,1,.584.2.6.6,0,0,1,.155.628.633.633,0,0,1-.525.445,2.245,2.245,0,0,1-.373.023q-3.688,0-7.377,0a.7.7,0,0,1-.753-.41.634.634,0,0,1,.538-.885c.1-.01.2-.007.308-.007h3.655Z" transform="translate(-11.839 -30.748)" fill="#ed396c" stroke="#ed396c" stroke-width="0.2"/>
        <path id="Path_13037" data-name="Path 13037" d="M15.529,62.071a1.957,1.957,0,1,1,.006,3.915,1.957,1.957,0,1,1-.006-3.915m-.013,2.616a.637.637,0,0,0,.671-.658.663.663,0,1,0-.671.658" transform="translate(-6.723 -30.744)" fill="#ed396c" stroke="#ed396c" stroke-width="0.2"/>
        <path id="Path_13038" data-name="Path 13038" d="M15.535,49.149a1.958,1.958,0,1,1-.007,3.915,1.958,1.958,0,0,1,.007-3.915m.652,1.955a.663.663,0,1,0-.667.662.642.642,0,0,0,.667-.662" transform="translate(-6.723 -24.344)" fill="#ed396c" stroke="#ed396c" stroke-width="0.2"/>
        <path id="Path_13039" data-name="Path 13039" d="M27.481,28.485c-.939,0-1.877,0-2.816,0a.638.638,0,0,1-.723-.6.606.606,0,0,1,.527-.67,2.727,2.727,0,0,1,.415-.033q2.673,0,5.346,0a1.627,1.627,0,0,1,.262.021.663.663,0,0,1,.589.612.67.67,0,0,1-.567.659,1.57,1.57,0,0,1-.284.02q-1.376,0-2.75,0" transform="translate(-11.858 -13.459)" fill="#ed396c" stroke="#ed396c" stroke-width="0.2"/>
        <path id="Path_13040" data-name="Path 13040" d="M27.46,55.626q-1.31,0-2.621,0a2.134,2.134,0,0,1-.394-.031.614.614,0,0,1-.5-.593.622.622,0,0,1,.442-.636,1.246,1.246,0,0,1,.369-.052q2.753,0,5.506,0a1.233,1.233,0,0,1,.347.049.663.663,0,0,1,.473.621.655.655,0,0,1-.544.61,2.733,2.733,0,0,1-.416.031q-1.332,0-2.665,0Z" transform="translate(-11.861 -26.902)" fill="#ed396c" stroke="#ed396c" stroke-width="0.2"/>
        <path id="Path_13041" data-name="Path 13041" d="M15.241,25.909a.759.759,0,0,1-.445-.166c-.318-.259-.642-.512-.956-.775a.638.638,0,1,1,.795-1c.123.092.24.193.354.3.1.088.154.082.243-.03.355-.448.721-.888,1.091-1.323a.645.645,0,0,1,1.148.314.647.647,0,0,1-.161.509q-.791.972-1.593,1.935a.593.593,0,0,1-.476.235" transform="translate(-6.719 -11.225)" fill="#ed396c" stroke="#ed396c" stroke-width="0.2"/>
        <path id="Path_13042" data-name="Path 13042" d="M15.258,40.121a.807.807,0,0,1-.5-.2c-.3-.249-.6-.493-.9-.747a.63.63,0,1,1,.792-.977c.116.089.23.182.337.282s.174.08.263-.034c.343-.439.7-.872,1.049-1.3a.631.631,0,0,1,.7-.24.646.646,0,0,1,.478.547.545.545,0,0,1-.121.454c-.547.68-1.1,1.359-1.683,2.006a.669.669,0,0,1-.426.214" transform="translate(-6.733 -18.263)" fill="#ed396c" stroke="#ed396c" stroke-width="0.2"/>
        <path id="Path_13043" data-name="Path 13043" d="M25.856,42.7c-.4,0-.793.009-1.189,0a.652.652,0,0,1-.719-.64A.626.626,0,0,1,24.6,41.4q1.276-.032,2.554,0a.656.656,0,0,1,.668.633.648.648,0,0,1-.649.647c-.439.029-.88.007-1.32.007V42.7" transform="translate(-11.862 -20.499)" fill="#ed396c" stroke="#ed396c" stroke-width="0.2"/>
        <path id="Path_13044" data-name="Path 13044" d="M25.361,68.546a6.6,6.6,0,0,1-.9-.027.637.637,0,0,1-.051-1.239,1.131,1.131,0,0,1,.281-.044c.469,0,.938-.01,1.407,0,.561.012.892.469.677.924a.628.628,0,0,1-.493.36,7.9,7.9,0,0,1-.922.027" transform="translate(-11.861 -33.3)" fill="#ed396c" stroke="#ed396c" stroke-width="0.2"/>
      </g>
    </g>
  </g>
</svg>
