<svg xmlns="http://www.w3.org/2000/svg" xmlns:xlink="http://www.w3.org/1999/xlink" width="50" height="50" viewBox="0 0 50 50">
  <defs>
    <clipPath id="clip-path">
      <rect id="Rectangle_6597" data-name="Rectangle 6597" width="37.972" height="33.536" fill="#ed396c"/>
    </clipPath>
    <clipPath id="clip-Articles">
      <rect width="50" height="50"/>
    </clipPath>
  </defs>
  <g id="Articles" clip-path="url(#clip-Articles)">
    <g id="Group_24479" data-name="Group 24479" transform="translate(6.001 8)">
      <g id="Group_24478" data-name="Group 24478" clip-path="url(#clip-path)">
        <path id="Path_13059" data-name="Path 13059" d="M16.834,0H31.795a1.789,1.789,0,0,1,1.781,1.216,1.913,1.913,0,0,1,.1.6c0,.766,0,1.533-.005,2.3,0,.159.046.191.2.19.748-.008,1.5,0,2.243,0a1.776,1.776,0,0,1,1.866,1.826c0,.043,0,.087,0,.13q0,11.349,0,22.7a4.425,4.425,0,0,1-.465,2.186,4.287,4.287,0,0,1-3.964,2.382q-10.706.023-21.412.007-3.856,0-7.712,0a4.318,4.318,0,0,1-4.32-3.5,4.758,4.758,0,0,1-.1-.994q0-13.6,0-27.2A1.757,1.757,0,0,1,1.818,0C2.744,0,3.671,0,4.6,0H16.834m2.143,31.8v.008h14.7a2.55,2.55,0,0,0,2.527-2.061,6.064,6.064,0,0,0,.049-1.239q0-9.282,0-18.564,0-1.827,0-3.653c0-.263,0-.261-.258-.262l-2.058-.007c-.289,0-.269-.068-.269.255q0,10.7,0,21.4c0,.576.035.62.6.732a.827.827,0,0,1-.074,1.64,1.91,1.91,0,0,1-1.464-.5,2.216,2.216,0,0,1-.764-1.8c0-.791,0-1.582,0-2.374q0-11.609-.005-23.218c0-.423,0-.424-.43-.424H2.016c-.327,0-.3-.071-.3.326q0,13.427,0,26.854a5.15,5.15,0,0,0,.026.592,2.484,2.484,0,0,0,1.648,2.14,3.609,3.609,0,0,0,1.407.154H18.977" transform="translate(0 0)" fill="#ed396c"/>
        <path id="Path_13060" data-name="Path 13060" d="M26.987,35.618q0,1.984,0,3.968c0,.136,0,.272-.014.407a.841.841,0,0,1-.782.8,4.886,4.886,0,0,1-.592.015H17.832a2.339,2.339,0,0,1-.552-.047.842.842,0,0,1-.656-.738,11.7,11.7,0,0,1-.009-1.223q-.008-3.625,0-7.251a2.232,2.232,0,0,1,.031-.461.906.906,0,0,1,1-.678c1.075,0,2.15,0,3.226,0h4.968a2.42,2.42,0,0,1,.388.021.82.82,0,0,1,.749.807c.016.215.012.432.012.649q0,1.864,0,3.728Zm-5.189-3.5h0c-1.112,0-2.224,0-3.336,0-.147,0-.17.051-.17.183q.01,3.207.01,6.414c0,.378-.007.378.371.378q3.206,0,6.412,0c.149,0,.2-.031.2-.193-.012-.5-.005-1-.005-1.5,0-1.681,0-3.361,0-5.042,0-.182-.031-.249-.239-.246-1.081.014-2.162.007-3.243.007" transform="translate(-11.435 -20.948)" fill="#ed396c"/>
        <path id="Path_13061" data-name="Path 13061" d="M28.364,18.325H17.779a1.694,1.694,0,0,1-.5-.057.833.833,0,0,1,.082-1.63,2.176,2.176,0,0,1,.387-.034q10.539,0,21.077,0a2.693,2.693,0,0,1,.388.028A.835.835,0,0,1,39.17,18.3c-.3.022-.6.024-.907.024q-4.95,0-9.9,0Z" transform="translate(-11.474 -11.435)" fill="#ed396c"/>
        <path id="Path_13062" data-name="Path 13062" d="M63.314,87.329c-1.16.012-2.574-.016-3.989.015a.878.878,0,0,1-.98-.912.856.856,0,0,1,.726-.778,2,2,0,0,1,.35-.026q4.049,0,8.1,0a2.077,2.077,0,0,1,.478.044.83.83,0,0,1-.13,1.648c-.413.018-.827.008-1.241.009H63.314" transform="translate(-40.186 -58.979)" fill="#ed396c"/>
        <path id="Path_13063" data-name="Path 13063" d="M63.543,32.132H59.43a1.046,1.046,0,0,1-.925-.365.788.788,0,0,1-.1-.839.893.893,0,0,1,.836-.516c.166-.01.333,0,.5,0q3.91,0,7.819,0a2.077,2.077,0,0,1,.442.039.835.835,0,0,1-.143,1.654c-.3.022-.6.018-.907.018q-1.7,0-3.41,0v0" transform="translate(-40.176 -20.944)" fill="#ed396c"/>
        <path id="Path_13064" data-name="Path 13064" d="M21.848,87.339q-2,0-4,0a3.78,3.78,0,0,1-.407-.019.835.835,0,0,1-.012-1.666,5,5,0,0,1,.592-.027q3.975,0,7.95,0a1.253,1.253,0,0,1,.525.091.847.847,0,0,1,.489.91.821.821,0,0,1-.761.692c-.264.021-.531.011-.8.012H21.848v.011" transform="translate(-11.473 -58.977)" fill="#ed396c"/>
        <path id="Path_13065" data-name="Path 13065" d="M63.532,45.941h-4c-.092,0-.185,0-.278-.005a.855.855,0,1,1,.025-1.706c.222,0,.445,0,.667,0l7.669,0a1.613,1.613,0,0,1,.44.048.826.826,0,0,1-.043,1.615,4.93,4.93,0,0,1-1.034.038c-1.148.009-2.3,0-3.446,0Z" transform="translate(-40.188 -30.465)" fill="#ed396c"/>
        <path id="Path_13066" data-name="Path 13066" d="M21.842,73.524q-2.01,0-4.02,0A3.521,3.521,0,0,1,17.4,73.5a.831.831,0,0,1-.1-1.632,1.964,1.964,0,0,1,.514-.052l8.171,0a.952.952,0,0,1,.881.408.832.832,0,0,1-.609,1.283,7.851,7.851,0,0,1-.926.008H21.842v.009" transform="translate(-11.476 -49.466)" fill="#ed396c"/>
        <path id="Path_13067" data-name="Path 13067" d="M63.523,73.528H59.466a1.9,1.9,0,0,1-.479-.035.837.837,0,0,1-.642-.843.861.861,0,0,1,.756-.809,2.52,2.52,0,0,1,.369-.02q4.02,0,8.04,0a1.992,1.992,0,0,1,.514.049.83.83,0,0,1-.131,1.642,8.178,8.178,0,0,1-.869,0q-1.751,0-3.5,0v.011" transform="translate(-40.187 -49.469)" fill="#ed396c"/>
        <path id="Path_13068" data-name="Path 13068" d="M63.51,58.026h4.023a2.005,2.005,0,0,1,.5.045.853.853,0,0,1,.653.857.842.842,0,0,1-.762.779,6.169,6.169,0,0,1-.8,0l-7.768.013a1.062,1.062,0,0,1-.685-.181.839.839,0,0,1-.3-.893.89.89,0,0,1,.762-.616,3.231,3.231,0,0,1,.352-.011H63.51Z" transform="translate(-40.186 -39.965)" fill="#ed396c"/>
      </g>
    </g>
  </g>
</svg>
