<svg xmlns="http://www.w3.org/2000/svg" xmlns:xlink="http://www.w3.org/1999/xlink" width="50" height="50" viewBox="0 0 50 50">
  <defs>
    <clipPath id="clip-path">
      <rect id="Rectangle_6598" data-name="Rectangle 6598" width="39.299" height="42.494" fill="#339" stroke="#339" stroke-linejoin="bevel" stroke-width="0.5"/>
    </clipPath>
    <clipPath id="clip-Blog">
      <rect width="50" height="50"/>
    </clipPath>
  </defs>
  <g id="Blog" clip-path="url(#clip-Blog)">
    <g id="Group_24481" data-name="Group 24481" transform="translate(4.999 3.999)">
      <g id="Group_24480" data-name="Group 24480" clip-path="url(#clip-path)">
        <path id="Path_13069" data-name="Path 13069" d="M33.034,27.119c-.309.67-.611,1.344-.928,2.01-.5,1.041-1,2.077-1.5,3.116a1.8,1.8,0,0,1-.422.532q-2.257,2.095-4.514,4.189a1.589,1.589,0,0,1-.646.435.831.831,0,0,1-1.064-.7,9.139,9.139,0,0,1,.059-1.551c.036-.746.092-1.49.149-2.235.013-.168-.035-.208-.2-.208q-4.4,0-8.791,0-4.852,0-9.7,0a1.149,1.149,0,0,1-.409-.043A.605.605,0,0,1,5.146,31.5a2.383,2.383,0,0,1,.412-.03H23.95c.3,0,.308,0,.33-.292.024-.317.044-.634.055-.952a2.446,2.446,0,0,1,.266-1.1c.121-.225.219-.461.33-.691.054-.112.038-.164-.1-.162-.6.009-1.2.017-1.8.017q-8.771,0-17.541,0a3.052,3.052,0,0,1-.392-.023.606.606,0,0,1,.029-1.211c.075-.007.152,0,.228,0q9.973,0,19.947,0a.37.37,0,0,0,.4-.245c.43-.934.88-1.859,1.329-2.784.068-.14.044-.182-.11-.176-.207.008-.415,0-.622,0l-16.671,0a1.648,1.648,0,0,1-.432-.037.6.6,0,0,1-.45-.6.588.588,0,0,1,.5-.576,2.929,2.929,0,0,1,.558-.027q8.709,0,17.417.009a.628.628,0,0,0,.685-.439c.382-.864.809-1.709,1.225-2.558a.613.613,0,1,1,1.118.493c-.214.464-.434.925-.653,1.386q-1.844,3.881-3.691,7.76c-.058.121-.051.177.076.236q1.8.845,3.591,1.7c.127.061.163.017.213-.09q2-4.229,4.015-8.454,1.349-2.832,2.709-5.659c.044-.093.113-.176-.042-.249-1.2-.565-2.384-1.155-3.6-1.689-.139-.061-.2-.04-.264.1-.34.725-.69,1.445-1.037,2.166a1.25,1.25,0,0,1-.218.35.588.588,0,0,1-.721.107.6.6,0,0,1-.284-.674,9.488,9.488,0,0,1,.525-1.192c.566-1.214,1.146-2.42,1.723-3.629.047-.1.1-.194.161-.288a2.414,2.414,0,0,0,.342-1.378c-.032-.919-.012-1.839-.006-2.759,0-.144-.021-.2-.187-.2q-15.3.013-30.6.014c-.3,0-.595,0-.891-.017-.144-.008-.183.044-.17.175.007.075,0,.152,0,.228q0,6.245,0,12.49a1.325,1.325,0,0,1-.049.43.624.624,0,0,1-.6.42.592.592,0,0,1-.548-.458A1.642,1.642,0,0,1,0,20.587Q0,11.126,0,1.665A1.506,1.506,0,0,1,.883.153,1.948,1.948,0,0,1,1.691,0c.339,0,.677,0,1.016,0H32.544a2.671,2.671,0,0,1,.617.061,1.478,1.478,0,0,1,1.159,1.5c.006.145,0,.29,0,.436q0,4.056,0,8.112c0,.183.046.218.217.177a2.427,2.427,0,0,1,1.582.133c.617.275,1.24.546,1.828.877A2.538,2.538,0,0,1,39.3,13.61a2.165,2.165,0,0,1-.263.951l-4.28,8.994a.137.137,0,0,1-.008.019,3.074,3.074,0,0,0-.436,1.872c.018,4.848.01,9.7.01,14.544q0,.415.007.83a1.542,1.542,0,0,1-1.581,1.673c-.055,0-.111,0-.166,0H1.729a1.751,1.751,0,0,1-1.117-.3A1.474,1.474,0,0,1,0,41c-.006-.353,0-.705,0-1.058q0-7.915,0-15.83a2.729,2.729,0,0,1,.023-.517.6.6,0,0,1,.568-.513.627.627,0,0,1,.6.433,1.338,1.338,0,0,1,.049.43q0,8.424,0,16.847c0,.424.032.461.457.467.394.006.788,0,1.182,0H31.615c.38,0,.76.005,1.14,0,.267-.005.331-.076.331-.337q0-6.826,0-13.652c0-.046,0-.092-.006-.138l-.046-.007M17.16,6.447c1.216,0,2.433,0,3.649,0,4.036.012,8.071-.03,12.107.026.166,0,.172-.065.172-.192q0-2.334,0-4.668c0-.3-.063-.371-.36-.375-.373-.005-.746,0-1.12,0H3.95c-.795,0-1.589,0-2.384,0-.255,0-.328.083-.328.32,0,1.577,0,3.153,0,4.73,0,.152.05.183.19.178.407-.015.815-.022,1.223-.022H17.16m18,5.006a1.118,1.118,0,0,0-1.141.693q-.357.792-.728,1.579c-.051.109-.025.163.076.211q1.814.857,3.626,1.719c.095.045.138.025.176-.06.259-.58.578-1.13.814-1.721a.992.992,0,0,0,.061-.548,1.413,1.413,0,0,0-.879-1.074q-.712-.334-1.426-.662a1.3,1.3,0,0,0-.578-.138M25.449,32.34h0c0,.09,0,.18-.016.269a.182.182,0,0,0,.126.209c.562.263,1.124.527,1.683.8a.207.207,0,0,0,.272-.044c.415-.4.833-.789,1.26-1.172.13-.117.088-.148-.039-.206-.451-.208-.9-.425-1.346-.64q-.83-.4-1.658-.8c-.132-.064-.191-.056-.2.12-.017.49-.056.98-.086,1.469M25.3,35.615c.314-.286.643-.6.984-.891.136-.117.1-.168-.034-.229-.213-.1-.424-.2-.635-.3-.295-.14-.3-.14-.313.192-.01.409,0,.819,0,1.227" transform="translate(0)" fill="#339" stroke="#339" stroke-linejoin="bevel" stroke-width="0.5"/>
        <path id="Path_13070" data-name="Path 13070" d="M28.846,58.456c0-.643,0-1.286,0-1.93,0-.145.008-.291.023-.435a.8.8,0,0,1,.745-.762,6.692,6.692,0,0,1,1.92.042,1.778,1.778,0,0,1,1.362,1.7,1.912,1.912,0,0,1-.166.928c-.056.11-.009.158.073.218a1.928,1.928,0,0,1-.225,3.174,1.561,1.561,0,0,1-.771.208q-1.005.007-2.011,0a.855.855,0,0,1-.943-.9c-.017-.747,0-1.494,0-2.241h0m2.129,1.9v0h.373c.124,0,.248,0,.372,0,.385-.018.557-.206.568-.613s-.15-.647-.536-.662c-.509-.02-1.02,0-1.531,0-.1,0-.146.031-.142.146.009.331.009.663,0,.994,0,.118.05.137.149.136.248,0,.5,0,.745,0M30.086,57.2h0c0,.166,0,.332,0,.5,0,.091.019.146.122.144.324-.006.649,0,.972-.019s.479-.269.475-.661c0-.352-.17-.562-.48-.587-.185-.015-.372-.01-.558-.01-.523,0-.523,0-.525.512,0,.041,0,.083,0,.124" transform="translate(-22.7 -43.505)" fill="#339" stroke="#339" stroke-linejoin="bevel" stroke-width="0.5"/>
        <path id="Path_13071" data-name="Path 13071" d="M108.621,58.484c.007-.415-.007-.9.026-1.382a1.743,1.743,0,0,1,1.741-1.75c.655-.031,1.313-.021,1.968,0a.626.626,0,0,1,.6.927.615.615,0,0,1-.587.32c-.511.007-1.022,0-1.534,0-.159,0-.318,0-.477,0a.444.444,0,0,0-.461.39,1.74,1.74,0,0,0-.027.434c.027.8.02,1.6.008,2.405-.006.452.1.569.549.576.414.007.829,0,1.243-.015a.507.507,0,0,0,.567-.546,3.387,3.387,0,0,0-.011-.538c-.019-.229-.114-.314-.346-.326a2.513,2.513,0,0,1-.536-.036.616.616,0,0,1-.487-.592.59.59,0,0,1,.493-.582,1.643,1.643,0,0,1,2.042,1.1,2.8,2.8,0,0,1-.06,1.713,1.548,1.548,0,0,1-1.231,1A7.364,7.364,0,0,1,110,61.6a1.591,1.591,0,0,1-1.345-1.492c-.038-.517-.03-1.036-.031-1.623" transform="translate(-85.48 -43.543)" fill="#339" stroke="#339" stroke-linejoin="bevel" stroke-width="0.5"/>
        <path id="Path_13072" data-name="Path 13072" d="M81.541,58.581a7.31,7.31,0,0,1,.067-1.529,2.212,2.212,0,0,1,1.9-1.641,2.367,2.367,0,0,1,2.187.773,1.949,1.949,0,0,1,.485,1.143,18.662,18.662,0,0,1,.021,2.3,2.15,2.15,0,0,1-2.082,2.054,2.58,2.58,0,0,1-1.354-.222,2.117,2.117,0,0,1-1.221-1.946c-.009-.324,0-.65,0-.932m3.432.081c0-.366,0-.643,0-.919a1.23,1.23,0,0,0-.129-.581,1.059,1.059,0,0,0-1.13-.513.926.926,0,0,0-.931.941c-.017.635-.014,1.271,0,1.907a.93.93,0,0,0,.766.928,1.948,1.948,0,0,0,.516.015.926.926,0,0,0,.876-.772,6.741,6.741,0,0,0,.033-1.006" transform="translate(-64.165 -43.589)" fill="#339" stroke="#339" stroke-linejoin="bevel" stroke-width="0.5"/>
        <path id="Path_13073" data-name="Path 13073" d="M57.188,58.611c0-.795,0-1.59,0-2.384a.674.674,0,0,1,.554-.739.6.6,0,0,1,.683.646c0,.477,0,.954,0,1.431,0,.933,0,1.866,0,2.8,0,.147.053.169.182.167.656-.008,1.312-.009,1.968-.009a1.978,1.978,0,0,1,.371.03.625.625,0,0,1,.487.675.573.573,0,0,1-.568.527c-1.008.007-2.017.01-3.025,0a.644.644,0,0,1-.644-.715c0-.809,0-1.617,0-2.426" transform="translate(-45.004 -43.662)" fill="#339" stroke="#339" stroke-linejoin="bevel" stroke-width="0.5"/>
        <path id="Path_13074" data-name="Path 13074" d="M29.615,17.045H22.9a.609.609,0,0,1-.662-.79.561.561,0,0,1,.464-.421,2.182,2.182,0,0,1,.371-.031l13.143,0c.326,0,.628.037.779.382a.6.6,0,0,1-.517.857c-.206.013-.414,0-.622,0h-6.24v0" transform="translate(-17.475 -12.434)" fill="#339" stroke="#339" stroke-linejoin="bevel" stroke-width="0.5"/>
        <path id="Path_13075" data-name="Path 13075" d="M105.217,16.412a.606.606,0,0,1-.637.613.623.623,0,1,1,.039-1.245.61.61,0,0,1,.6.632" transform="translate(-81.824 -12.418)" fill="#339" stroke="#339" stroke-linejoin="bevel" stroke-width="0.5"/>
        <path id="Path_13076" data-name="Path 13076" d="M119.666,17.046a.621.621,0,0,1,0-1.242.635.635,0,0,1,.628.634.624.624,0,0,1-.63.608" transform="translate(-93.695 -12.437)" fill="#339" stroke="#339" stroke-linejoin="bevel" stroke-width="0.5"/>
        <path id="Path_13077" data-name="Path 13077" d="M135.282,16.531a.63.63,0,0,1-.628.634.614.614,0,0,1-.584-.607.606.606,0,1,1,1.212-.027" transform="translate(-105.507 -12.539)" fill="#339" stroke="#339" stroke-linejoin="bevel" stroke-width="0.5"/>
      </g>
    </g>
  </g>
</svg>
