<svg xmlns="http://www.w3.org/2000/svg" xmlns:xlink="http://www.w3.org/1999/xlink" width="50" height="50" viewBox="0 0 50 50">
  <defs>
    <clipPath id="clip-path">
      <rect id="Rectangle_6599" data-name="Rectangle 6599" width="41.538" height="41.518" fill="#ed396c" stroke="#ed396c" stroke-linejoin="bevel" stroke-width="0.2"/>
    </clipPath>
    <clipPath id="clip-Resources">
      <rect width="50" height="50"/>
    </clipPath>
  </defs>
  <g id="Resources" clip-path="url(#clip-Resources)">
    <g id="Group_24483" data-name="Group 24483" transform="translate(4.001 4)">
      <g id="Group_24482" data-name="Group 24482" transform="translate(0 0)" clip-path="url(#clip-path)">
        <path id="Path_13078" data-name="Path 13078" d="M5.36,18.916v-.225c0-2.141,0-4.281,0-6.423,0-.172-.04-.22-.215-.218-1.012.008-2.023,0-3.035,0a2.022,2.022,0,0,1-1.888-1.09A1.958,1.958,0,0,1,0,10Q0,7.317,0,4.639a1.966,1.966,0,0,1,1.69-1.915,4.806,4.806,0,0,1,.6-.044q7.126,0,14.252,0A2.049,2.049,0,0,1,18.5,3.73a2.291,2.291,0,0,1,.249,1.111q.011.836,0,1.673c0,.146.036.186.184.186q3.862-.007,7.723,0c.19,0,.2-.1.212-.226A7.334,7.334,0,0,1,40.678,3.988a7.008,7.008,0,0,1,.413,5.825,7.053,7.053,0,0,1-4.923,4.613,6.958,6.958,0,0,1-6.925-1.6,6.888,6.888,0,0,1-2.373-4.565c-.016-.168-.066-.23-.253-.228q-3.829.011-7.66,0c-.163,0-.205.042-.207.205-.01.7.044,1.395-.034,2.09a1.945,1.945,0,0,1-1.643,1.681,5.155,5.155,0,0,1-.71.045c-2.253,0-4.506,0-6.761,0-.178,0-.232.035-.231.225q.015,1.862,0,3.724c0,.193.065.256.244.3,2.042.5,4.08,1.017,6.12,1.524a1.992,1.992,0,0,1,1.675,2.088c0,.129.024.18.169.179q1.193-.011,2.386,0c.15,0,.191-.056.2-.19a7.267,7.267,0,0,1,5.835-6.356,7.074,7.074,0,0,1,7.228,2.68,7.027,7.027,0,0,1,1.588,4.63,7.347,7.347,0,0,1-6.469,7.2,7.131,7.131,0,0,1-6.481-2.525,6.773,6.773,0,0,1-1.7-3.9c-.016-.163-.074-.215-.244-.213q-1.151.016-2.3,0c-.184,0-.212.059-.212.224q.009,2.448,0,4.9a4.875,4.875,0,0,1-.468,2.208,4.125,4.125,0,0,1-.467.765c-.484.6-.965,1.211-1.457,1.808a.316.316,0,0,0-.042.424,6.8,6.8,0,0,1,.667,1.55.212.212,0,0,0,.245.184q5.38-.005,10.758,0c.157,0,.2-.056.216-.2a7.251,7.251,0,0,1,5.842-6.348,7.09,7.09,0,0,1,7.473,3.023,6.837,6.837,0,0,1,1.325,4.649,7.368,7.368,0,0,1-14.533,1.168,7.086,7.086,0,0,1-.114-.784c-.015-.122-.05-.178-.19-.176q-5.254.005-10.507,0c-.141,0-.181.041-.158.184a5.646,5.646,0,0,1,.07.937c0,1.785,0,3.571,0,5.356,0,.19-.051.226-.231.226q-5.807-.009-11.615,0c-.172,0-.22-.039-.22-.215.007-1.891-.021-3.781.013-5.67a7.465,7.465,0,0,1,.942-3.582.72.72,0,0,0-.12-1.009C4.4,30.561,4.009,30.02,3.6,29.495a4.736,4.736,0,0,1-.92-2.9c-.018-.949-.011-1.9,0-2.845a3.243,3.243,0,0,0-.354-1.53q-.408-.8-.8-1.608a1.742,1.742,0,0,1,.791-2.352,2.3,2.3,0,0,1,1.615-.077,3.985,3.985,0,0,1,1.426.73m4.019-1.339v.273c0,2.231,0,4.463,0,6.7,0,.2-.057.244-.242.235a7.009,7.009,0,0,0-.858,0c-.2.013-.25-.048-.25-.25q.011-7.135,0-14.268c0-.091,0-.183,0-.272a.639.639,0,0,0-.25-.486.67.67,0,0,0-.73-.062.618.618,0,0,0-.354.612q0,7.207,0,14.416a1.279,1.279,0,0,0,0,.167c.013.114-.036.143-.143.14-.335,0-.671-.01-1,0-.155,0-.2-.035-.2-.195q.011-1.507,0-3.013A2.289,2.289,0,0,0,3.05,19.419a.392.392,0,0,0-.376.4.739.739,0,0,0,.106.357c.215.422.429.844.653,1.262a5.04,5.04,0,0,1,.59,2.472c-.008.983-.006,1.967,0,2.951A2.917,2.917,0,0,0,4.6,28.613c.525.7,1.085,1.38,1.628,2.072a.285.285,0,0,0,.248.118q3.568,0,7.137,0a.275.275,0,0,0,.247-.116c.447-.571.882-1.151,1.361-1.7a3.21,3.21,0,0,0,.847-2.131c.017-2.364.007-4.729.006-7.093a.62.62,0,0,0-.48-.63c-.235-.066-.475-.115-.708-.184-.121-.036-.166-.013-.151.115a1.181,1.181,0,0,1,0,.146c0,1.785,0,3.571,0,5.356,0,.161-.035.218-.2.209-.313-.015-.629-.016-.942,0-.175.01-.2-.057-.2-.212,0-1.395,0-2.79,0-4.185,0-.544,0-1.088,0-1.632,0-.116-.028-.173-.146-.2-.392-.093-.781-.2-1.194-.3v.264c0,2.016,0,4.031,0,6.046,0,.168-.03.233-.213.222a6.875,6.875,0,0,0-.879,0c-.218.017-.259-.058-.257-.262.007-2.127,0-4.255.01-6.382,0-.178-.058-.238-.216-.274-.366-.083-.728-.183-1.128-.285m0-13.557H2.054a.637.637,0,0,0-.712.707V8.492c0,.509,0,1.018,0,1.527a.641.641,0,0,0,.706.7c1.046,0,2.092,0,3.138,0,.135,0,.179-.034.176-.173A4.821,4.821,0,0,1,5.4,9.669,2.025,2.025,0,0,1,7.291,8.04,1.99,1.99,0,0,1,9.3,9.566a3.847,3.847,0,0,1,.073.977c-.006.139.039.174.174.174q3.588,0,7.176,0a.619.619,0,0,0,.685-.65q.009-2.667,0-5.333a.645.645,0,0,0-.734-.713h-7.3m.673,36.155c1.486,0,2.971,0,4.457,0,.2,0,.236-.059.234-.243q-.011-2.018,0-4.036a7.2,7.2,0,0,0-.933-3.619.234.234,0,0,0-.241-.143q-3.516,0-7.029,0a.228.228,0,0,0-.232.128,6.905,6.905,0,0,0-.938,3.406c-.016,1.429,0,2.858-.008,4.287,0,.173.041.219.216.218,1.493-.007,2.986,0,4.477,0M29.682,21.9a.553.553,0,0,0,.079.06,5.355,5.355,0,0,1,2.424,2.312c.047.091.086.108.157.007a5.917,5.917,0,0,0,.986-4.963,5.988,5.988,0,0,0-6.438-4.555,6.039,6.039,0,0,0-5.369,6.994A6.019,6.019,0,0,0,22.655,24.4c.131-.213.25-.421.383-.621A5.178,5.178,0,0,1,25.108,22c.16-.079.144-.129.031-.224a1.427,1.427,0,0,1-.145-.151,3.212,3.212,0,0,1-.868-2.514,3.349,3.349,0,1,1,6.625.933,3.423,3.423,0,0,1-1.07,1.854m-.343,15.876a.6.6,0,0,0,.172-.242,5.227,5.227,0,0,1,2.243-2.124c.21-.11.212-.105.046-.279a3.271,3.271,0,0,1-.945-2.845,3.358,3.358,0,0,1,3.252-2.827,3.311,3.311,0,0,1,3.336,2.786,3.139,3.139,0,0,1-.936,2.914c-.117.12-.124.161.03.241a5.244,5.244,0,0,1,2.329,2.237c.068.127.108.133.191.008a5.888,5.888,0,0,0,.415-6.362,6.028,6.028,0,0,0-11.134,4.4,6.36,6.36,0,0,0,1,2.089m0-26.779a.386.386,0,0,0,.054-.052c.04-.065.08-.131.117-.2a5.22,5.22,0,0,1,2.228-2.113c.221-.116.222-.111.052-.29a3.266,3.266,0,0,1-.94-2.828,3.328,3.328,0,0,1,3.741-2.8,3.2,3.2,0,0,1,2.667,2.078,3.163,3.163,0,0,1-.48,3.287c-.117.152-.254.291-.384.439a.681.681,0,0,0,.074.051,5.4,5.4,0,0,1,2.407,2.305c.056.108.093.114.168.007a5.928,5.928,0,0,0,1.032-4.721,6,6,0,0,0-6.484-4.788,5.818,5.818,0,0,0-3.409,1.48,5.811,5.811,0,0,0-1.967,5.511A6.006,6.006,0,0,0,29.343,11m4.613,2.378a6.039,6.039,0,0,0,3.874-1.216.173.173,0,0,0,.07-.243,4.022,4.022,0,0,0-7.442-.08.25.25,0,0,0,.1.377,6.119,6.119,0,0,0,3.4,1.162m-.048,26.781a6.049,6.049,0,0,0,3.925-1.222c.1-.077.1-.14.056-.247a4.027,4.027,0,0,0-4.682-2.414,4.108,4.108,0,0,0-2.754,2.343.25.25,0,0,0,.1.377,6.075,6.075,0,0,0,3.352,1.163M27.195,26.767a6.045,6.045,0,0,0,1.182-.054,6.345,6.345,0,0,0,2.78-1.177c.091-.063.081-.123.048-.212a4.047,4.047,0,0,0-4.688-2.442,4.11,4.11,0,0,0-2.757,2.334.258.258,0,0,0,.1.393,6.05,6.05,0,0,0,3.33,1.158m6.958,8.054a2.018,2.018,0,0,0,2.014-2,2.008,2.008,0,1,0-4.015.007,2.027,2.027,0,0,0,2,1.992M27.444,21.43a2.012,2.012,0,1,0-1.991-2.049,2.009,2.009,0,0,0,1.991,2.049M34.155,8.04a2.012,2.012,0,1,0-2-1.994,2.009,2.009,0,0,0,2,1.994" transform="translate(0 0)" fill="#ed396c" stroke="#ed396c" stroke-linejoin="bevel" stroke-width="0.2"/>
      </g>
    </g>
  </g>
</svg>
